<svg preserveAspectRatio="none" width="100%" height="100%" overflow="visible" style="display: block;" viewBox="0 0 31.993 31.993" fill="none" xmlns="http://www.w3.org/2000/svg">
<g id="Icon" clip-path="url(#clip0_0_4)">
<path id="Vector" d="M15.9965 31.536C24.5787 31.536 31.536 24.5787 31.536 15.9965C31.536 7.4143 24.5787 0.457043 15.9965 0.457043C7.4143 0.457043 0.457043 7.4143 0.457043 15.9965C0.457043 24.5787 7.4143 31.536 15.9965 31.536Z" stroke="var(--stroke-0, white)" stroke-width="0.914086"/>
<path id="Vector_2" d="M15.9965 28.3367C22.8118 28.3367 28.3367 22.8118 28.3367 15.9965C28.3367 9.18122 22.8118 3.65634 15.9965 3.65634C9.18122 3.65634 3.65634 9.18122 3.65634 15.9965C3.65634 22.8118 9.18122 28.3367 15.9965 28.3367Z" stroke="var(--stroke-0, white)" stroke-width="0.914086"/>
<path id="Vector_3" d="M15.9965 25.1374C21.0449 25.1374 25.1374 21.0449 25.1374 15.9965C25.1374 10.9481 21.0449 6.85564 15.9965 6.85564C10.9481 6.85564 6.85564 10.9481 6.85564 15.9965C6.85564 21.0449 10.9481 25.1374 15.9965 25.1374Z" stroke="var(--stroke-0, white)" stroke-width="0.914086"/>
<path id="Vector_4" d="M15.9962 21.9378C19.2777 21.9378 21.9378 19.2777 21.9378 15.9962C21.9378 12.7148 19.2777 10.0547 15.9962 10.0547C12.7148 10.0547 10.0547 12.7148 10.0547 15.9962C10.0547 19.2777 12.7148 21.9378 15.9962 21.9378Z" stroke="var(--stroke-0, white)" stroke-width="0.914086"/>
<path id="Vector_5" d="M15.9962 18.7384C17.5107 18.7384 18.7384 17.5107 18.7384 15.9962C18.7384 14.4817 17.5107 13.2539 15.9962 13.2539C14.4817 13.2539 13.2539 14.4817 13.2539 15.9962C13.2539 17.5107 14.4817 18.7384 15.9962 18.7384Z" stroke="var(--stroke-0, white)" stroke-width="0.914086"/>
</g>
<defs>
<clipPath id="clip0_0_4">
<rect width="31.993" height="31.993" fill="white"/>
</clipPath>
</defs>
</svg>
