<svg preserveAspectRatio="none" width="100%" height="100%" overflow="visible" style="display: block;" viewBox="0 0 30.0001 22.087" fill="none" xmlns="http://www.w3.org/2000/svg">
<g id="Group">
<path id="Vector" d="M18.5047 11.7004C18.4376 11.6805 18.3441 11.6077 18.3337 11.5651C18.3041 11.4431 18.3861 11.3454 18.4467 11.3224C18.6894 11.23 18.9399 11.1532 19.1943 11.1039C19.3293 11.0776 19.4127 11.0828 19.5178 11.0541C19.7203 10.999 19.8774 10.888 19.8703 10.6309C19.8635 10.3836 19.7396 10.1929 19.5224 10.1617C19.1907 10.1136 18.853 10.0861 18.5181 10.0917C18.4188 10.0901 18.3192 10.091 18.2201 10.0952C17.9203 10.1078 17.7923 10.2948 17.7211 10.6142C17.6904 10.7513 17.6382 10.8832 17.5878 11.0155C17.4694 10.734 17.3535 10.4512 17.2284 10.173C16.8148 9.25035 16.3468 8.36547 15.6683 7.62865C15.1742 7.09241 14.612 6.80985 13.8708 6.81958C13.8415 6.81998 13.8125 6.82019 13.7831 6.82059C13.7554 6.82019 13.728 6.81939 13.7 6.81958C12.4169 6.8363 11.1333 6.84249 9.84985 6.84249C8.56642 6.84249 7.2828 6.8363 5.99975 6.81958C5.25855 6.80985 4.69643 7.09241 4.20235 7.62865C3.5238 8.36547 3.05558 9.25035 2.64223 10.173C2.49811 10.4938 2.36627 10.8205 2.22848 11.1447C2.19482 11.1431 2.1924 11.1431 2.15875 11.1419C2.0972 10.9664 2.01928 10.7949 1.97874 10.6142C1.90752 10.2948 1.77978 10.1078 1.47984 10.0952C1.28162 10.0871 1.08209 10.0906 0.882937 10.1044C0.703867 10.1163 0.525355 10.136 0.348143 10.1617C0.130953 10.1931 0.0069235 10.3836 0.000229266 10.6309C-0.00683685 10.888 0.150292 10.999 0.352793 11.0541C0.457855 11.0828 0.541345 11.0776 0.676345 11.1039C0.74552 11.1172 0.814508 11.1327 0.883123 11.1502C1.06647 11.1962 1.2474 11.2551 1.42387 11.3224C1.48449 11.3454 1.56649 11.4433 1.53692 11.5651C1.52633 11.6077 1.43298 11.6805 1.36585 11.7004C1.1719 11.7577 1.00585 11.8542 0.883123 12.007C0.842958 12.0568 0.80744 12.1125 0.776945 12.175C0.309092 13.1349 -0.0315682 14.12 0.00320447 15.2409C0.046717 16.6471 -0.00218809 18.0561 0.0234731 19.4633C0.035374 20.1196 0.114961 20.776 0.19213 21.4286C0.244569 21.8704 0.4837 22.0744 0.882937 22.0837C0.89242 22.0841 0.901717 22.0841 0.911202 22.0841C1.34949 22.0847 1.78796 22.0865 2.22643 22.0869C2.93285 22.0873 2.95108 22.0869 3.11713 21.4677C3.1257 21.435 3.14783 21.4082 3.177 21.3942C3.3929 21.2904 3.59075 21.2394 3.6973 21.1053C3.7901 20.9883 3.84998 20.9334 3.98775 20.9338C5.91403 20.9356 7.84065 20.9366 9.7671 20.9372H9.938C11.8641 20.9366 13.7901 20.9356 15.7162 20.9338C15.8512 20.9348 15.9107 20.9895 16.0028 21.1053C16.1095 21.2394 16.3072 21.2904 16.5231 21.3942C16.5521 21.4082 16.5744 21.435 16.5829 21.4677C16.749 22.0869 16.7672 22.0871 17.4736 22.0869H17.6445C18.083 22.0865 18.5216 22.0847 18.9597 22.0841C19.3757 22.0837 19.6253 21.8809 19.6788 21.4286C19.756 20.776 19.8354 20.1196 19.8475 19.4633C19.8732 18.0561 19.8241 16.6471 19.8678 15.2409C19.9025 14.1202 19.5619 13.1351 19.0944 12.175C18.9711 11.9221 18.763 11.7764 18.5055 11.7006L18.5047 11.7004ZM2.8051 11.4676L4.0547 8.89675C4.55305 7.98801 5.51405 7.42211 6.55907 7.42211H13.3111C14.356 7.42211 15.3172 7.98801 15.8155 8.89675L17.0651 11.4676C17.1071 11.5542 17.0486 11.6574 16.9575 11.6574H2.91278C2.82165 11.6574 2.76307 11.554 2.8051 11.4676ZM5.74145 15.0342C5.45192 15.074 4.82415 15.1237 4.82415 15.1237C4.37863 15.1293 4.0268 15.3738 3.91505 15.4767C3.89033 15.4994 3.85685 15.5072 3.8256 15.4976L1.90771 14.9086C1.78312 14.8704 1.68048 14.7729 1.63455 14.643C1.51554 14.3051 1.65835 13.8353 1.73738 13.6212C1.75951 13.5615 1.82255 13.5317 1.87852 13.5549C2.49978 13.8142 5.07353 14.2199 5.45155 14.2786C5.48113 14.2832 5.5066 14.3021 5.5213 14.3298L5.81343 14.8804C5.84745 14.9444 5.8097 15.0248 5.74145 15.0342ZM13.2156 19.7485H6.65465C6.4293 19.7485 6.31438 19.4587 6.47095 19.2852L7.29712 18.3693C7.34527 18.316 7.41168 18.2857 7.48085 18.2857H12.3894C12.4587 18.2857 12.5251 18.3158 12.5731 18.3693L13.3993 19.2852C13.5558 19.4587 13.4409 19.7485 13.2156 19.7485ZM18.2357 14.6432C18.1899 14.7731 18.0873 14.8704 17.9625 14.9088L16.0446 15.4978C16.0134 15.5073 15.9799 15.4996 15.9552 15.4769C15.8434 15.374 15.5074 15.1295 15.0461 15.1239C15.0461 15.1239 14.4183 15.0742 14.1287 15.0344C14.0605 15.025 14.0229 14.9448 14.0568 14.8808L14.3489 14.3302C14.3636 14.3023 14.3893 14.2836 14.4186 14.279C14.7967 14.2203 17.3704 13.8148 17.9917 13.5553C18.0477 13.5321 18.1107 13.5617 18.1328 13.6216C18.2119 13.8359 18.3547 14.3053 18.2357 14.6432Z" fill="var(--fill-0, white)"/>
<path id="Vector_2" d="M27.0133 2.40389C26.9113 2.38339 26.7059 2.37305 26.3978 2.37305H25.9844V3.65906H26.4526C26.7897 3.65906 27.0153 3.63538 27.1289 3.58804C27.2427 3.54068 27.3317 3.46644 27.3962 3.36538C27.4608 3.2645 27.493 3.1469 27.493 3.01298C27.493 2.8482 27.4478 2.71212 27.3572 2.60486C27.2664 2.49781 27.1521 2.43075 27.0133 2.40389Z" fill="var(--fill-0, white)"/>
<path id="Vector_3" d="M29.2188 0H23.5447C23.1133 0 22.7635 0.374285 22.7635 0.835923V6.90765C22.7635 7.36931 23.1133 7.7436 23.5447 7.7436H26.0117V22.087H26.7518V7.7436H29.2188C29.6503 7.7436 30 7.36931 30 6.90765V0.835923C30 0.374285 29.6503 0 29.2188 0ZM28.2323 3.70187C28.138 3.89149 28.0182 4.04032 27.8727 4.14859C27.7272 4.25683 27.5795 4.32845 27.4293 4.36347C27.225 4.40667 26.9295 4.42835 26.5425 4.42835H25.985V6.13781H25.1297V1.60598H26.502C27.0218 1.60598 27.3607 1.62867 27.5187 1.67404C27.7615 1.74209 27.9648 1.88993 28.1285 2.11757C28.292 2.3454 28.374 2.6395 28.374 3.00005C28.374 3.27824 28.3265 3.51224 28.2323 3.70187Z" fill="var(--fill-0, white)"/>
</g>
</svg>
