<svg preserveAspectRatio="none" width="100%" height="100%" overflow="visible" style="display: block;" viewBox="0 0 133.483 104.793" fill="none" xmlns="http://www.w3.org/2000/svg">
<g id="Logo">
<path id="Vector" fill-rule="evenodd" clip-rule="evenodd" d="M44.5147 26.1514C41.5094 29.2359 38.053 32.6557 36.2609 35.8682C34.4687 39.0746 34.3407 42.0737 32.3413 43.8415C30.3418 45.6093 26.4588 46.1519 23.4718 48.7609C20.4788 51.3638 18.3757 56.0333 17.5954 60.2761C16.8152 64.5184 17.3516 68.3406 13.688 73.0952C10.0244 77.8503 2.15469 83.5374 0.405183 86.3415C-1.35042 89.1456 3.0081 89.0544 5.65372 88.9261C8.29927 88.7983 9.22585 88.6277 9.92076 88.2009C10.6157 87.7741 11.0851 87.0856 12.1519 85.6713C13.2247 84.257 14.9072 82.111 16.169 81.3491C17.4308 80.5872 18.2721 81.209 19.3144 82.416C20.3568 83.623 21.6065 85.4274 22.6793 86.4149C23.7461 87.4085 24.6361 87.5913 25.4286 87.3168C26.221 87.0428 26.916 86.2992 27.7694 85.2567C28.6228 84.2143 29.6408 82.8733 30.6954 81.4835C31.7438 80.0937 32.835 78.6611 33.8347 77.6675C34.8406 76.6739 35.761 76.1249 36.6571 75.936C37.5532 75.747 38.4249 75.9176 39.4002 76.8323C40.3755 77.7464 41.4545 79.4046 42.2897 80.9345C43.1309 82.4588 43.7283 83.8486 44.667 85.3846C45.6058 86.9206 46.892 88.6032 49.7873 89.2556C51.0554 89.5418 53.8106 89.7247 57.5294 89.8408C60.6563 89.9319 60.364 89.8224 62.6863 87.5302C63.7349 86.4943 64.6552 85.4824 65.2098 84.8422C66.4107 83.4585 67.6421 82.3671 68.7335 81.7392C69.8183 81.1112 70.7635 80.9345 71.5803 80.959C72.3972 80.9834 73.0858 81.209 73.9999 81.7514C74.9146 82.3004 76.0483 83.1718 77.3286 84.0681C78.6084 84.9639 80.0288 85.8847 81.358 86.5794C82.6806 87.2806 83.912 87.7558 84.0582 87.6524C84.2105 87.5424 83.2841 86.8477 82.5894 86.3293C81.8943 85.8114 81.4308 85.4823 82.1137 84.7628C82.7967 84.0436 84.6189 82.9462 85.887 82.2637C87.1551 81.5808 87.862 81.3246 88.6605 81.3063C89.4591 81.2884 90.3493 81.5075 91.5868 82.2882C92.8239 83.0623 94.4031 84.3971 96.0364 85.8297C100.383 89.6518 101.431 89.6213 106.308 89.5235C110.868 89.4323 114.678 89.3529 117.183 89.3101C124.248 89.1945 129.161 89.414 131.551 88.2742C133.947 87.134 133.825 84.641 132.746 82.2637C131.667 79.8864 129.631 77.6308 128.308 75.802C126.985 73.9732 126.37 72.565 125.979 69.1269C125.589 65.6888 125.425 60.215 123.37 55.71C121.316 51.2054 117.378 47.6756 114.245 46.0117C111.112 44.3414 108.783 44.5364 105.93 41.6409C103.077 38.7454 99.7002 32.7532 96.4209 29.8028C93.1411 26.8525 89.9653 26.9378 87.9475 25.1151C85.9298 23.2864 85.0762 19.5436 83.4303 16.7029C81.7847 13.8561 79.3402 11.9055 76.6518 9.38178C73.9577 6.8581 71.0191 3.76142 68.2151 5.16348C65.4171 6.56552 62.7596 12.4724 60.1812 15.2948C57.6022 18.1171 55.1032 17.8489 52.5792 19.0924C50.0557 20.336 47.5078 23.0852 44.5024 26.1697" fill="var(--fill-0, #2BA8B0)"/>
<path id="Vector_2" fill-rule="evenodd" clip-rule="evenodd" d="M29.1537 88.2495C30.696 85.9267 33.2135 82.3485 34.8533 80.4407C36.4931 78.5264 37.2489 78.2768 37.9195 78.618C38.584 78.9592 39.157 79.8861 40.1872 82.2573C41.2112 84.6346 42.6986 88.4568 43.802 90.718C44.9114 92.9797 45.6429 93.6687 45.5088 94.1561C45.3747 94.644 44.375 94.918 43.4972 95.0585C42.6194 95.1925 41.8574 95.1864 41.5343 95.2964C41.2112 95.4059 41.3271 95.6315 41.9062 97.0702C42.4853 98.5089 43.5337 101.166 44.1433 102.691C44.753 104.214 44.9236 104.604 42.022 104.738C39.1265 104.867 33.1587 104.738 29.873 104.647C26.5874 104.556 25.9777 104.507 25.9351 103.843C25.8924 103.184 26.4106 101.916 27.0933 100.459C27.776 99.0024 28.6295 97.3564 29.0805 96.3022C29.5316 95.2475 29.5865 94.7902 28.9586 94.4917C28.3308 94.1928 27.0201 94.0527 26.4959 93.7843C25.9717 93.516 26.2277 93.1259 26.6422 92.3884C27.0506 91.651 27.6175 90.5718 29.1537 88.2495Z" fill="var(--fill-0, #A8CF45)"/>
<path id="Vector_3" fill-rule="evenodd" clip-rule="evenodd" d="M11.7552 89.9921C12.8098 88.584 14.5288 86.4567 15.559 85.1886C16.5893 83.9144 16.9367 83.4881 17.3817 83.7071C17.8267 83.9266 18.3753 84.7802 19.0824 86.3895C19.7896 87.9988 20.6551 90.3639 21.2526 91.9366C21.85 93.5092 22.1791 94.2899 21.8621 94.6128C21.5452 94.9357 20.5698 94.8018 20.1248 94.8445C19.6798 94.8873 19.7591 95.1063 20.0883 96.1855C20.4174 97.2646 20.9965 99.1968 21.3623 100.282C21.7219 101.367 21.8682 101.599 19.4726 101.72C17.0769 101.836 12.1515 101.836 9.73142 101.605C7.31138 101.373 7.40891 100.91 7.72589 100.258C8.04286 99.6053 8.57933 98.764 9.32299 97.7036C10.0667 96.6428 11.0115 95.3625 11.4809 94.7284C11.7979 94.3021 11.8142 94.0601 11.5297 94.0032C11.1091 93.9177 10.2618 93.7409 9.92648 93.5215C9.59122 93.3081 9.76193 93.0524 10.0423 92.5767C10.3227 92.1011 10.7007 91.4003 11.7552 89.9921Z" fill="var(--fill-0, #A8CF45)"/>
<path id="Vector_4" fill-rule="evenodd" clip-rule="evenodd" d="M22.8498 4.12008C18.0037 6.76567 13.3465 10.0209 10.4936 13.4467C7.64682 16.8726 6.60443 20.4569 6.45205 24.5716C6.29357 28.6863 7.02505 33.3252 9.80479 38.2811C11.8286 41.8899 14.9436 45.6754 19.2716 48.5771C19.9177 47.7602 20.6127 47.0105 21.3686 46.352C23.0693 44.8707 24.959 43.932 27.0133 43.0542C27.8789 42.6823 29.5248 42.0666 30.2197 41.451C30.3172 41.3656 30.4026 41.2742 30.4757 41.1706C30.9512 40.5549 31.2926 39.5186 31.5547 38.7932C32.1155 37.2327 32.6519 35.7697 33.4627 34.3127C35.5719 30.5333 39.1989 27.0282 42.2163 23.9254C44.7705 21.2981 47.8732 17.8357 51.1713 16.2142C52.1221 15.7449 53.0913 15.4339 54.1094 15.1352C55.6637 14.672 56.6939 14.3672 57.8276 13.1297C58.5655 12.3251 59.2541 11.3132 59.8942 10.3196C58.9801 9.38081 57.8887 8.44812 56.5962 7.51548C52.0305 4.21152 44.8924 0.81614 38.8087 0.133408C32.7251 -0.549327 27.696 1.48059 22.856 4.12008" fill="var(--fill-0, #FFD24D)"/>
<path id="Vector_5" fill-rule="evenodd" clip-rule="evenodd" d="M70.0006 8.3988C70.5129 8.93527 71.921 10.9713 72.8413 12.2941C73.7621 13.6169 74.1888 14.2325 74.7923 14.8909C75.3958 15.5492 76.176 16.2564 76.8524 17.122C77.5292 17.9875 78.1083 19.0239 78.6445 19.9321C79.1813 20.8465 79.6748 21.6451 80.2416 22.1998C80.8089 22.7606 81.4547 23.0776 81.8326 23.864C82.211 24.6503 82.3327 25.9061 82.5461 26.7717C82.7656 27.6372 83.0763 28.1128 83.5764 28.6431C84.076 29.1673 84.7589 29.7464 85.777 30.6669C86.795 31.5874 88.1482 32.8431 89.4769 33.9647C90.8061 35.0925 92.1042 36.08 92.9395 36.6164C93.7747 37.1529 94.1403 37.2321 94.5977 37.4942C95.0545 37.7564 94.6522 38.5976 95.7191 38.8963C96.786 39.2011 98.1514 40.7738 98.0113 40.9872C97.8647 41.2005 97.2189 41.7247 95.9814 41.8649C94.7438 42.0052 94.0792 39.9448 93.7502 39.7375C93.4212 39.5242 93.3784 39.0853 92.8845 38.817C92.391 38.5427 91.458 38.433 90.6594 38.1465C89.867 37.8539 89.2151 37.3845 88.3921 37.3967C87.5752 37.415 86.5877 37.9209 85.8987 37.8478C85.2101 37.7746 84.8257 37.1224 84.2588 36.2751C83.692 35.4277 82.9484 34.3914 82.1071 34.1293C81.2658 33.8672 80.3211 34.3732 79.602 34.4402C78.8763 34.5073 78.3766 34.1293 77.9865 33.1418C77.5964 32.1543 77.328 30.5572 77.273 29.1308C77.2181 27.7104 77.3769 26.4669 77.2242 24.8515C77.078 23.2361 76.6146 21.2549 75.7798 20.0784C74.9446 18.8958 73.7254 18.5179 72.8474 17.4024C71.9699 16.2868 71.4393 14.4337 71.0553 13.2816C70.6713 12.1356 70.4334 11.6967 70.3239 11.2273C70.214 10.764 70.2262 10.2702 70.0372 9.54483C69.8544 8.81942 69.4704 7.85021 69.9827 8.38663" fill="var(--fill-0, #ADDEE0)"/>
<path id="Vector_6" fill-rule="evenodd" clip-rule="evenodd" d="M61.088 20.8716C59.4909 20.5241 56.6624 20.5668 55.3031 21.0972C53.9439 21.6214 54.0656 22.6333 53.9862 23.8463C53.9072 25.0594 53.6266 26.4737 53.127 27.7355C52.6269 28.9973 51.8956 30.1068 50.7741 30.8931C49.6522 31.6795 48.1345 32.1367 47.2565 32.7585C46.3788 33.3863 46.135 34.1727 45.9642 35.0322C45.7936 35.8917 45.6899 36.8122 46.3056 36.7207C46.9213 36.6232 48.2501 35.5077 49.4938 34.9286C50.7374 34.3495 51.8956 34.3068 52.9258 33.5997C53.9561 32.8926 54.858 31.521 56.3028 29.9788C57.7477 28.4426 59.7471 26.7419 61.0147 25.4983C62.2889 24.2548 62.8435 23.4745 62.9413 22.7186C63.0386 21.9567 62.679 21.2251 61.088 20.8777" fill="var(--fill-0, #ADDEE0)"/>
<path id="Vector_7" fill-rule="evenodd" clip-rule="evenodd" d="M71.4387 19.5243C71.9021 20.396 71.6765 23.4561 72.3778 27.077C73.0846 30.6979 74.7184 34.8797 75.7731 37.9337C76.8335 40.9877 77.3091 42.9079 76.3949 42.1093C75.4803 41.3108 73.1641 37.7996 71.1769 36.3061C69.1897 34.8187 67.5254 35.349 65.7149 34.642C63.9044 33.9287 61.9477 31.972 62.5451 30.8503C63.1486 29.7287 66.3123 29.4361 67.7632 27.9792C69.2075 26.5223 68.9396 23.9011 69.3786 21.9321C69.8171 19.9632 70.9696 18.6465 71.4264 19.5182" fill="var(--fill-0, #ADDEE0)"/>
<path id="Vector_8" d="M120.017 104.787C119.626 104.787 119.431 104.592 119.431 104.202V96.1367C119.431 95.9417 119.334 95.8444 119.139 95.8444H118.261C118.066 95.8444 117.969 95.7466 117.969 95.5516V94.8202C117.969 94.6252 118.066 94.5274 118.261 94.5274H122.071C122.266 94.5274 122.364 94.6252 122.364 94.8202V95.5516C122.364 95.7466 122.266 95.8444 122.071 95.8444H121.193C120.998 95.8444 120.901 95.9417 120.901 96.1367V104.202C120.901 104.592 120.706 104.787 120.315 104.787H120.023H120.017ZM110.556 104.787C110.324 104.787 110.142 104.744 110.019 104.653C109.898 104.567 109.8 104.421 109.733 104.226L108.605 101.178C108.575 101.099 108.538 101.038 108.496 100.989C108.453 100.94 108.392 100.916 108.313 100.916C108.197 100.916 108.136 101.007 108.136 101.196V104.202C108.136 104.592 107.941 104.787 107.551 104.787H107.258C106.868 104.787 106.673 104.592 106.673 104.202V95.1126C106.673 94.7225 106.868 94.5274 107.258 94.5274H109.312C109.928 94.5274 110.373 94.668 110.653 94.9481C110.934 95.2287 111.074 95.6738 111.074 96.2895V99.1481C111.074 99.636 110.989 100.014 110.824 100.282C110.66 100.55 110.392 100.733 110.032 100.831L111.263 104.202C111.33 104.384 111.312 104.531 111.214 104.635C111.111 104.738 110.983 104.787 110.824 104.787H110.562H110.556ZM109.605 96.4296C109.605 96.0395 109.41 95.8444 109.02 95.8444H108.434C108.239 95.8444 108.142 95.9417 108.142 96.1367V99.3493C108.142 99.5077 108.239 99.581 108.434 99.581H109.02C109.41 99.581 109.605 99.3859 109.605 98.9958V96.4296ZM96.2612 104.787C95.6455 104.787 95.2004 104.647 94.9203 104.366C94.6397 104.086 94.4996 103.641 94.4996 103.025V96.2834C94.4996 95.6677 94.6397 95.2226 94.9203 94.942C95.2004 94.6618 95.6455 94.5213 96.2612 94.5213H97.1392C97.7549 94.5213 98.1995 94.6618 98.4801 94.942C98.7607 95.2226 98.9008 95.6677 98.9008 96.2834V103.025C98.9008 103.641 98.7607 104.086 98.4801 104.366C98.1995 104.647 97.7549 104.787 97.1392 104.787H96.2612ZM97.4315 96.4296C97.4315 96.0395 97.2365 95.8444 96.8464 95.8444H96.554C96.1639 95.8444 95.9689 96.0395 95.9689 96.4296V102.879C95.9689 103.269 96.1639 103.464 96.554 103.464H96.8464C97.2365 103.464 97.4315 103.269 97.4315 102.879V96.4296ZM83.0576 104.787C82.6675 104.787 82.4725 104.592 82.4725 104.202V104.055C82.4725 103.665 82.6675 103.47 83.0576 103.47H84.8193C85.2094 103.47 85.4044 103.275 85.4044 102.885V102.227C85.4044 102.05 85.3922 101.909 85.3682 101.806C85.3438 101.703 85.3071 101.623 85.2521 101.556C85.1971 101.495 85.1365 101.434 85.0632 101.385C84.9899 101.336 84.9109 101.282 84.8193 101.227L84.2463 100.874C84.0207 100.745 83.8012 100.642 83.5939 100.55C83.3867 100.465 83.1977 100.349 83.0271 100.215C82.8626 100.081 82.7286 99.8921 82.6248 99.6665C82.5214 99.4348 82.4725 99.1176 82.4725 98.7035V96.2834C82.4725 95.6677 82.6125 95.2226 82.8931 94.942C83.1733 94.6618 83.6184 94.5213 84.2341 94.5213H85.0387C85.6545 94.5213 86.0996 94.6618 86.3797 94.942C86.6603 95.2226 86.8003 95.6677 86.8003 96.2834V97.8255C86.8003 98.2156 86.6053 98.4107 86.2152 98.4107H85.9228C85.5327 98.4107 85.3377 98.2156 85.3377 97.8255V96.4296C85.3377 96.0395 85.1426 95.8444 84.7525 95.8444H84.533C84.1429 95.8444 83.9478 96.0395 83.9478 96.4296V98.4107C83.9478 98.6057 83.9662 98.758 83.9963 98.868C84.0329 98.9775 84.0757 99.063 84.1368 99.1298C84.1974 99.197 84.2585 99.252 84.3257 99.2825C84.3925 99.3187 84.4658 99.3554 84.5452 99.4043L85.1182 99.7394C85.4289 99.9161 85.6972 100.063 85.9228 100.178C86.1484 100.294 86.3313 100.428 86.4713 100.568C86.6114 100.709 86.7153 100.886 86.782 101.087C86.8431 101.294 86.8798 101.568 86.8798 101.922V103.019C86.8798 103.635 86.7397 104.08 86.4591 104.36C86.1785 104.641 85.7339 104.781 85.1182 104.781H83.0638L83.0576 104.787ZM75.4317 104.202C75.4317 104.592 75.2367 104.787 74.8466 104.787H72.3536C71.963 104.787 71.768 104.592 71.768 104.202V95.1126C71.768 94.7225 71.963 94.5274 72.3536 94.5274H74.8466C75.2367 94.5274 75.4317 94.7225 75.4317 95.1126V95.2592C75.4317 95.6493 75.2367 95.8444 74.8466 95.8444H73.5301C73.335 95.8444 73.2372 95.9417 73.2372 96.1367V98.1178C73.2372 98.3129 73.335 98.4107 73.5301 98.4107H74.2614C74.6515 98.4107 74.8466 98.6057 74.8466 98.9958V99.142C74.8466 99.5321 74.6515 99.7272 74.2614 99.7272H73.5301C73.335 99.7272 73.2372 99.8249 73.2372 100.02V103.171C73.2372 103.366 73.335 103.464 73.5301 103.464H74.8466C75.2367 103.464 75.4317 103.659 75.4317 104.049V104.196V104.202ZM63.6241 104.787C63.3924 104.787 63.2095 104.744 63.0878 104.653C62.9656 104.567 62.8683 104.421 62.8011 104.226L61.6736 101.178C61.643 101.099 61.6063 101.038 61.5636 100.989C61.5213 100.94 61.4602 100.916 61.3807 100.916C61.2651 100.916 61.204 101.007 61.204 101.196V104.202C61.204 104.592 61.009 104.787 60.6189 104.787H60.3265C59.9364 104.787 59.7413 104.592 59.7413 104.202V95.1126C59.7413 94.7225 59.9364 94.5274 60.3265 94.5274H62.3805C62.9962 94.5274 63.4413 94.668 63.7219 94.9481C64.002 95.2287 64.1425 95.6738 64.1425 96.2895V99.1481C64.1425 99.636 64.057 100.014 63.8925 100.282C63.728 100.55 63.4596 100.733 63.1 100.831L64.3315 104.202C64.3982 104.384 64.3799 104.531 64.2826 104.635C64.1787 104.738 64.0509 104.787 63.8925 104.787H63.6302H63.6241ZM62.6733 96.4296C62.6733 96.0395 62.4782 95.8444 62.0881 95.8444H61.5029C61.3079 95.8444 61.2101 95.9417 61.2101 96.1367V99.3493C61.2101 99.5077 61.3079 99.581 61.5029 99.581H62.0881C62.4782 99.581 62.6733 99.3859 62.6733 98.9958V96.4296Z" fill="var(--fill-0, #2BA8B0)"/>
<path id="Vector_9" d="M110.197 65.6833C111.331 65.4822 112.19 64.9943 112.769 64.2141C113.348 63.4339 114.074 62.2819 113.836 60.8004L113.129 56.3992C112.525 52.6565 112.568 50.98 108.21 50.5349L103.016 50.0047C101.821 49.8825 101.12 50.4437 101.059 51.6446L99.8764 75.3571C99.7486 77.8627 103.272 78.0089 103.491 75.5094L104.296 66.3108C104.345 65.744 104.552 65.4699 104.912 65.5C105.15 65.5184 105.332 65.6161 105.454 65.7745C105.582 65.9451 105.674 66.1402 105.741 66.3963L108.374 76.04C109.063 78.7097 113.671 78.7219 113.056 76.3629L110.191 65.6951L110.197 65.6833ZM109.386 59.9591C109.648 61.1294 108.63 61.7023 107.429 61.5989L105.631 61.4405C105.033 61.3855 104.759 61.1233 104.802 60.642L105.283 55.1739C105.338 54.5765 105.68 54.2475 106.259 54.3631L106.96 54.5032C108.143 54.7349 108.338 55.2834 108.6 56.4603L109.386 59.9591Z" fill="var(--fill-0, white)"/>
<path id="Vector_10" d="M90.404 47.2594L94.4513 46.9975C96.9325 46.839 96.6702 42.7914 94.1895 42.9499L86.5513 43.4437C85.3505 43.5229 84.7897 44.163 84.8687 45.3578L86.3624 68.5524C86.4414 69.7532 87.0754 70.314 88.2763 70.235L95.9144 69.741C98.3956 69.5826 98.1334 65.5349 95.6522 65.6933L91.6049 65.9555C91.0075 65.9922 90.6903 65.7238 90.6536 65.1264L90.3307 60.1401C90.294 59.5427 90.5746 59.2198 91.172 59.177L93.4154 59.0309C95.8839 58.872 95.6282 54.8186 93.1531 54.977L90.9098 55.1232C90.3124 55.1599 89.9956 54.8793 89.9528 54.2819L89.5627 48.2107C89.526 47.6134 89.8005 47.29 90.404 47.2477V47.2594Z" fill="var(--fill-0, white)"/>
<path id="Vector_11" d="M84.3197 72.6614H80.2597C79.6562 72.6614 79.3455 72.3686 79.3639 71.7712L79.9185 47.9853C79.9735 45.5653 76.1452 45.547 76.0291 48.1498L74.8527 74.9104C74.7977 76.1113 75.4562 76.7148 76.6571 76.7148H84.3197C86.8065 76.7148 86.7825 72.6614 84.3197 72.6614Z" fill="var(--fill-0, white)"/>
<path id="Vector_12" d="M68.3733 45.3041L67.1968 57.0932C67.0746 58.288 66.5933 58.8976 65.3924 58.8976H64.4961C63.2953 58.8976 62.8135 58.288 62.6918 57.0932L61.5153 45.3041C61.247 42.5975 56.7851 42.9937 57.0103 45.3041L58.1811 57.5505C58.3456 59.2816 58.5406 60.5985 59.2414 61.4643C59.9549 62.3418 61.0947 62.8297 62.6857 62.9575L63.3991 70.2178C63.5942 72.2111 66.575 72.6868 66.7334 70.2178L67.1907 62.9575C68.7817 62.7991 69.9337 62.299 70.6345 61.4521C71.3418 60.5924 71.5308 59.2877 71.6953 57.5566L72.8717 45.3101C73.0851 43.0608 68.6351 42.5975 68.3672 45.3101" fill="var(--fill-0, white)"/>
<path id="Vector_13" d="M48.8668 46.924L42.7771 64.6326C42.5637 65.2483 42.4479 65.2178 42.326 64.6326L38.5954 46.924C38.1138 44.632 34.1881 44.3516 33.6334 46.9728L27.7509 74.9099C27.312 76.9826 31.6461 77.83 32.2557 74.9099L35.7608 58.1526L40.29 72.2524C41.1434 74.6725 43.9414 74.6725 44.7948 72.2524L49.2997 58.2014L51.6404 77.275C51.976 79.9879 56.3221 79.5794 56.1454 77.275L53.7982 46.9789C53.6092 44.4979 49.7448 44.4187 48.8607 46.9302" fill="var(--fill-0, white)"/>
</g>
</svg>
