<svg preserveAspectRatio="none" width="100%" height="100%" overflow="visible" style="display: block;" viewBox="0 0 31.9947 31.9947" fill="none" xmlns="http://www.w3.org/2000/svg">
<g id="Icon" clip-path="url(#clip0_0_26)">
<path id="Vector" d="M27.6303 11.5233C27.6096 13.4492 27.167 15.5414 26.3159 17.5393C24.0488 22.858 20.5959 27.3956 16.7309 31.6566C16.3054 32.1262 15.8178 32.2659 15.358 31.7464C10.9011 26.7151 6.64121 21.5459 4.81669 14.9178C2.97508 8.21943 6.9174 1.62515 13.4903 0.26591C20.7686 -1.23922 27.2309 3.79745 27.6321 11.5224H27.6303V11.5233ZM22.9584 11.4263C22.9719 7.56208 19.8671 4.40591 16.0418 4.39434C12.2074 4.38278 8.98303 7.53713 8.96593 11.3231C8.94884 15.1598 12.0779 18.2518 15.9806 18.2572C19.8681 18.2626 22.9449 15.2505 22.9575 11.4254L22.9584 11.4263Z" fill="var(--fill-0, #2BA8B0)"/>
</g>
<defs>
<clipPath id="clip0_0_26">
<rect width="31.9947" height="31.9947" fill="white"/>
</clipPath>
</defs>
</svg>
