<svg preserveAspectRatio="none" width="100%" height="100%" overflow="visible" style="display: block;" viewBox="0 0 51.7663 52.7978" fill="none" xmlns="http://www.w3.org/2000/svg">
<g id="Toon logo">
<path id="Vector" fill-rule="evenodd" clip-rule="evenodd" d="M36.4998 12.5324H45.2158V22.9627L51.7662 25.6875C51.3866 11.434 39.9402 0 25.8831 0C11.826 0 0.379669 11.434 0 25.6875L25.8831 14.9116L36.4998 19.3313V12.5324Z" fill="var(--fill-0, #277691)"/>
<g id="Group 337">
<path id="Vector_2" fill-rule="evenodd" clip-rule="evenodd" d="M26.4402 23.2681L50.118 33.1303C50.3969 32.4935 50.65 31.8425 50.875 31.1772L26.4402 20.9979L1.99845 31.1772C2.22344 31.8425 2.47656 32.4911 2.75545 33.1303L26.4402 23.2681Z" fill="var(--fill-0, white)"/>
<path id="Vector_3" fill-rule="evenodd" clip-rule="evenodd" d="M5.6196 52.7097H9.4327V51.848H6.63674V50.4584H9.15381V49.5991H6.63674V48.4605H9.3413V47.5917H5.6196V52.7097Z" fill="var(--fill-0, white)"/>
<path id="Vector_4" fill-rule="evenodd" clip-rule="evenodd" d="M17.253 52.7097H18.467L19.5896 50.9414L20.7005 52.7097H21.9215L20.2013 50.0797L21.7692 47.5917H20.5927L19.6037 49.2393L18.6006 47.5917H17.4171L18.9732 50.0394L17.253 52.7097Z" fill="var(--fill-0, white)"/>
<path id="Vector_5" fill-rule="evenodd" clip-rule="evenodd" d="M30.9309 48.4604H31.4161C31.7676 48.4604 32.0067 48.4746 32.1403 48.4936C32.3207 48.5267 32.452 48.6096 32.5457 48.7232C32.6512 48.8463 32.7121 49.0002 32.7121 49.1777C32.7121 49.3339 32.6723 49.4689 32.5996 49.5778C32.5199 49.7009 32.4145 49.7814 32.2809 49.8287C32.1403 49.8832 31.8754 49.9092 31.477 49.9092H30.9333V48.458L30.9309 48.4604ZM29.9138 52.7097H30.9309V50.7851H31.5895C32.0606 50.7851 32.4074 50.7591 32.6395 50.7117C32.8246 50.6715 32.998 50.5886 33.1644 50.4679C33.3449 50.3448 33.4832 50.1838 33.5886 49.9589C33.6941 49.7482 33.755 49.4855 33.755 49.1659C33.755 48.7658 33.6542 48.4415 33.4691 48.1763C33.2699 47.9183 33.0308 47.7502 32.7449 47.6745C32.5457 47.62 32.1473 47.594 31.5426 47.594H29.9161V52.7121L29.9138 52.7097Z" fill="var(--fill-0, white)"/>
<path id="Vector_6" fill-rule="evenodd" clip-rule="evenodd" d="M42.895 50.1536C42.895 49.557 43.0216 49.1238 43.2794 48.8326C43.5395 48.5344 43.8699 48.3923 44.2895 48.3923C44.709 48.3923 45.0394 48.5344 45.2996 48.8255C45.5527 49.1167 45.6792 49.557 45.6792 50.1394C45.6792 50.7217 45.5386 51.1763 45.2808 51.4674C45.0207 51.7586 44.6902 51.9077 44.2918 51.9077C43.8934 51.9077 43.5536 51.7586 43.2958 51.4674C43.0309 51.162 42.8973 50.7288 42.8973 50.1536H42.895ZM41.8521 50.182C41.8521 50.9963 42.0724 51.6402 42.5153 52.1066C42.9536 52.5682 43.5442 52.7978 44.2965 52.7978C45.0488 52.7978 45.6183 52.5611 46.0636 52.0995C46.5019 51.6308 46.7222 50.9869 46.7222 50.1607C46.7222 49.3345 46.4972 48.6693 46.0519 48.2077C45.6136 47.7389 45.016 47.5022 44.2848 47.5022C43.8653 47.5022 43.5067 47.5709 43.195 47.7058C42.963 47.8076 42.7497 47.9638 42.5505 48.1745C42.3583 48.3781 42.1989 48.6077 42.0794 48.8729C41.9271 49.2256 41.8544 49.6588 41.8544 50.182H41.8521Z" fill="var(--fill-0, white)"/>
<path id="Vector_7" fill-rule="evenodd" clip-rule="evenodd" d="M42.417 31.8072C40.7038 31.1633 38.9953 30.5194 37.2821 29.8755C37.547 30.588 37.6876 31.3858 37.7016 32.2806C37.7227 34.049 37.7673 35.8316 37.7813 37.607C37.8024 39.3825 37.7954 41.158 37.7954 42.9334C37.7954 43.8283 37.6759 44.574 37.411 45.1847H39.7617C39.4969 44.6024 39.3633 43.8827 39.3633 43.0234C39.3633 41.4113 39.3563 39.7968 39.3422 38.1846C39.3352 36.5725 39.3024 34.958 39.2766 33.3459C39.9351 35.4812 40.5984 37.5549 41.2499 39.5553C41.8804 41.5012 42.5249 43.3785 43.1576 45.1871H47.7277C47.7277 43.5679 47.7418 41.9463 47.7277 40.327C47.7207 38.7078 47.6879 37.0815 47.6551 35.4599C47.641 34.7686 47.7676 34.2478 48.0347 33.9141C47.2449 33.6158 46.4528 33.3246 45.677 33.0263C45.9489 33.6087 46.0825 34.2526 46.0895 34.958C46.1106 36.26 46.1505 37.5597 46.1622 38.8617C46.1762 40.1566 46.1692 41.4586 46.1692 42.7511C45.5645 41.0846 44.9458 39.3494 44.3224 37.5526C43.685 35.7014 43.0545 33.7839 42.4217 31.8048L42.417 31.8072ZM29.363 32.0439C29.356 31.6036 29.363 31.2438 29.3888 30.9739C29.4216 30.6969 29.4755 30.5004 29.5411 30.3631C29.6067 30.2282 29.7075 30.1524 29.827 30.1406C29.9395 30.1193 30.0872 30.1406 30.2653 30.195C30.6895 30.33 31.109 30.4602 31.5473 30.5951C31.7277 30.6567 31.873 30.7229 31.9996 30.8176C32.1261 30.9052 32.2199 31.0354 32.2925 31.2035C32.3652 31.3716 32.4261 31.5894 32.4589 31.8687C32.4847 32.141 32.5058 32.4795 32.5128 32.8914C32.5386 34.1389 32.5597 35.3865 32.5738 36.627C32.5878 37.8745 32.5808 39.115 32.5878 40.3626C32.5878 40.7555 32.5738 41.0798 32.548 41.3379C32.5269 41.5888 32.4753 41.7924 32.4074 41.9415C32.3347 42.0907 32.241 42.1925 32.1285 42.2469C32.0019 42.3014 31.8426 42.3203 31.6574 42.3085C31.2262 42.2824 30.8067 42.254 30.3825 42.228C30.0098 42.2067 29.7638 42.0528 29.6395 41.7735C29.506 41.4965 29.4403 40.9118 29.4403 40.0311C29.4403 38.7031 29.4333 37.3679 29.4192 36.0399C29.4052 34.7118 29.3864 33.3767 29.3653 32.0486L29.363 32.0439ZM28.1349 26.4405C27.8303 26.3245 27.5232 26.2985 27.2303 26.36C26.9373 26.4287 26.6584 26.611 26.4592 26.9637C26.2131 27.3969 26.0749 28.0266 25.9483 28.7865C25.8218 29.5393 25.7632 30.446 25.7749 31.5184C25.796 32.8867 25.8218 34.2502 25.8358 35.6114C25.8499 36.9726 25.8499 38.3433 25.8569 39.7044C25.8639 41.6362 26.0819 43.0258 26.5084 43.8803C26.9397 44.7539 27.5256 45.1895 28.2896 45.1895H33.7503C34.0948 45.1895 34.4135 45.109 34.7065 44.9598C34.9994 44.8036 35.2572 44.5527 35.4705 44.207C35.6838 43.8614 35.8549 43.3998 35.9814 42.8245C36.108 42.2564 36.1666 41.5438 36.1666 40.675C36.1666 39.5506 36.1666 38.4237 36.1525 37.3064C36.1455 36.1819 36.1197 35.0551 36.1056 33.9306C36.0845 32.4321 35.8525 31.2343 35.4424 30.3394C35.0299 29.4304 34.4252 28.8078 33.6143 28.5024C31.7863 27.8183 29.9677 27.1341 28.1326 26.4429L28.1349 26.4405ZM17.9378 33.5093C17.9307 33.1163 17.9378 32.792 17.9706 32.5339C17.9964 32.2688 18.0503 32.0605 18.1229 31.8971C18.1885 31.7409 18.2823 31.6202 18.3948 31.5302C18.5073 31.4497 18.6596 31.3811 18.8401 31.3195C19.2643 31.1917 19.6838 31.0544 20.108 30.9265C20.2884 30.8721 20.4337 30.8579 20.5603 30.8721C20.6869 30.8863 20.7853 30.9455 20.8603 31.0757C20.9329 31.2035 20.9868 31.4 21.0197 31.658C21.0525 31.9232 21.0665 32.2617 21.0736 32.6807C21.0946 33.9472 21.1134 35.209 21.1275 36.4755C21.1415 37.742 21.1345 39.0108 21.1415 40.2773C21.1486 40.6774 21.1345 41.0088 21.1157 41.274C21.09 41.532 21.0431 41.7474 20.9704 41.9037C20.9048 42.067 20.8111 42.1806 20.6915 42.2493C20.565 42.3179 20.4126 42.3582 20.2275 42.3653C19.7963 42.3913 19.3697 42.4197 18.9526 42.4458C18.5799 42.4671 18.3338 42.3582 18.2096 42.1262C18.0831 41.8895 18.0175 41.3805 18.0175 40.6016C18.0104 39.4156 18.0104 38.2367 17.9964 37.0507C17.9823 35.8718 17.9635 34.6929 17.9425 33.5069L17.9378 33.5093ZM16.7285 29.3547C16.4167 29.4707 16.1168 29.6458 15.8308 29.8897C15.5379 30.1406 15.2801 30.4649 15.0598 30.8721C14.8395 31.2722 14.6684 31.774 14.5348 32.3777C14.4083 32.9742 14.3497 33.6868 14.3614 34.5272C14.3754 35.5901 14.4012 36.6554 14.4153 37.7183C14.4223 38.7812 14.4223 39.8465 14.4223 40.9094C14.4223 42.415 14.6473 43.4921 15.0738 44.1621C15.498 44.8391 16.091 45.1847 16.855 45.1847H22.3157C22.6602 45.1847 22.9742 45.0971 23.2649 44.9267C23.5578 44.7515 23.8156 44.458 24.0289 44.0532C24.2421 43.6389 24.4203 43.0897 24.5398 42.3984C24.6663 41.7143 24.7249 40.8526 24.7203 39.8228C24.7132 38.4877 24.7132 37.1525 24.6992 35.8174C24.6851 34.4822 24.6663 33.1471 24.6453 31.8119C24.6195 30.0293 24.3992 28.7486 23.9867 27.9958C23.5812 27.2572 22.9696 27.0394 22.1727 27.3377C20.3517 28.0077 18.5331 28.68 16.7261 29.3499L16.7285 29.3547ZM6.96955 45.1871H11.3334C11.0686 44.6379 10.935 43.9679 10.935 43.1607C10.935 41.5959 10.935 40.0359 10.9209 38.4782C10.9069 36.9134 10.8741 35.3463 10.8483 33.7886C11.392 33.6134 11.9568 33.443 12.5146 33.2725C13.0536 33.1021 13.4708 33.1234 13.7778 33.327C13.6724 32.399 13.5575 31.4757 13.4661 30.5549C10.5225 31.6462 7.58593 32.7304 4.64467 33.8146C4.54389 34.5864 4.47124 35.3534 4.39155 36.1133C4.68451 35.8008 5.09465 35.557 5.63368 35.3889C6.18444 35.2184 6.7305 35.0575 7.28829 34.8799C7.31407 36.2955 7.34922 37.7065 7.36094 39.1221C7.375 40.533 7.36797 41.9415 7.36797 43.3572C7.36797 44.11 7.24142 44.7184 6.96955 45.1871Z" fill="var(--fill-0, white)"/>
</g>
</g>
</svg>
