<svg preserveAspectRatio="none" width="100%" height="100%" overflow="visible" style="display: block;" viewBox="0 0 72 72.5806" fill="none" xmlns="http://www.w3.org/2000/svg">
<g id="Layer_1" clip-path="url(#clip0_0_158)">
<path id="Vector" d="M13.717 0C21.763 2.52123 29.7146 5.3383 37.7407 7.92602C37.701 5.49121 37.7175 3.05639 37.7142 0.624907C38.8355 0.611611 39.9551 0.614935 41.0797 0.614935C41.0697 3.42369 41.0996 6.23578 41.0598 9.04287C42.2275 9.39023 43.3537 9.8506 44.518 10.2112C44.634 7.02522 44.5578 3.8342 44.5611 0.644851C45.6989 0.611611 46.8318 0.611611 47.9696 0.618259C47.9398 4.19486 47.9895 7.76979 47.9531 11.3464C49.654 11.9414 51.3914 12.4416 53.0758 13.0931C53.0758 15.2105 53.0659 17.3246 53.0791 19.4369C59.3844 19.4569 65.6914 19.4569 71.9934 19.4303C72 37.1438 72 54.8605 71.9934 72.574C47.9994 72.5806 24.0006 72.5673 0.00662495 72.5806C-0.00828119 62.2796 0.00828119 51.9753 0 41.6727C1.69433 41.8355 3.3986 41.7225 5.09625 41.7591C5.09293 38.8872 5.09293 36.0202 5.09625 33.1483C6.24733 33.1483 7.39676 33.1483 8.54785 33.1517C8.5611 36.0202 8.54453 38.8905 8.54785 41.7591C10.2654 41.7524 11.9829 41.7524 13.7004 41.7558C13.7203 27.8366 13.6838 13.9208 13.717 0.00166199V0ZM17.1189 4.68016C17.1255 17.0387 17.1222 29.3989 17.1189 41.7608C21.1038 41.7441 25.0937 41.7574 29.0786 41.7508C29.0753 50.8668 29.0554 59.9811 29.0885 69.0971C31.9671 69.1569 34.8439 69.0606 37.7258 69.1004C37.7026 67.3238 37.7424 65.5471 37.7092 63.7721C34.7396 62.9644 32.3728 60.0875 32.5732 56.938C32.5931 53.988 34.7909 51.2357 37.633 50.5311C40.4553 49.6652 43.7181 51.028 45.2219 53.5476C46.2604 55.168 46.431 57.2422 45.9573 59.082C45.3014 61.3606 43.3404 63.1505 41.078 63.7688C41.078 65.5488 41.078 67.3288 41.0813 69.1071C43.9533 69.0506 46.8268 69.1437 49.6987 69.1137C49.7219 51.254 49.6623 33.3926 49.7286 15.5329C38.8504 11.9414 27.9921 8.29165 17.1205 4.68016H17.1189ZM58.1986 26.2976C58.1654 28.0078 58.1721 29.7213 58.182 31.4348C60.4825 31.4315 62.783 31.4681 65.0852 31.4249C65.0885 29.7147 65.0819 28.0045 65.0885 26.2943C62.7946 26.2478 60.4974 26.271 58.1986 26.2976ZM58.1787 34.8685C58.1621 36.5687 58.1886 38.2689 58.2052 39.9725C60.4991 39.9292 62.7963 39.9791 65.0918 39.9459C65.0819 38.2589 65.0819 36.5687 65.0918 34.8818C62.788 34.8519 60.4842 34.8718 58.1787 34.8685ZM58.182 43.4394C58.1489 45.1562 58.2383 46.873 58.1853 48.5899C60.4825 48.6297 62.783 48.5998 65.0852 48.6098C65.0885 46.873 65.0885 45.1396 65.0852 43.4061C62.7847 43.4792 60.4842 43.4028 58.182 43.4394ZM6.83364 48.5982C6.80714 49.74 6.79058 50.8834 6.84026 52.0252C8.51803 51.9388 10.2024 51.8174 11.8769 52.0285C12.0061 50.8867 11.963 49.74 11.9564 48.5982C10.2488 48.5948 8.54122 48.5948 6.83364 48.5982ZM17.1156 48.5982C17.1255 49.7067 17.1255 50.8136 17.1189 51.9221C18.8265 51.9188 20.5274 52.0551 22.235 52.0052C22.2483 50.8701 22.2383 49.7333 22.2383 48.5982C20.5307 48.6015 18.8231 48.5948 17.1156 48.5982ZM58.1721 51.9886C58.2019 53.6955 58.2184 55.4023 58.1919 57.1092C60.4891 57.1059 62.7863 57.0826 65.0852 57.1125C65.0852 55.3824 65.0951 53.6489 65.0753 51.9188C62.7747 51.9554 60.4709 51.8357 58.1721 51.9886ZM6.83364 55.4256C6.8237 56.5508 6.80714 57.6743 6.7972 58.7994C8.51803 58.8061 10.2356 58.7994 11.9564 58.8061C11.963 57.6776 11.963 56.5541 11.963 55.4289C10.2521 55.4389 8.54122 55.4555 6.83364 55.4256ZM17.1222 55.4223C17.1189 56.5541 17.1189 57.6842 17.1288 58.8127C18.8298 58.7961 20.534 58.7961 22.2383 58.8161C22.2483 57.6876 22.2284 56.5574 22.2251 55.4289C20.5241 55.4755 18.8231 55.4456 17.1222 55.4223ZM58.1986 60.6027C58.2118 62.2996 58.2052 63.9965 58.1721 65.6934C60.4759 65.6967 62.7797 65.6967 65.0852 65.6934C65.0885 63.9932 65.0852 62.2963 65.0852 60.5961C62.788 60.6226 60.4974 60.4997 58.1986 60.6027ZM6.84026 62.2796C6.82701 63.4148 6.81708 64.5516 6.80383 65.69C8.52466 65.7 10.2422 65.6934 11.9597 65.6934C11.963 64.5516 11.963 63.4081 11.9597 62.2663C10.2521 62.2564 8.54453 62.273 6.84026 62.2796ZM17.1123 62.2464C17.1255 63.3948 17.1255 64.5449 17.1189 65.6967C18.8265 65.6934 20.5374 65.6967 22.2483 65.6934C22.2317 64.5516 22.2151 63.4115 22.2383 62.273C20.5307 62.3229 18.8231 62.2697 17.1123 62.2464Z" fill="var(--fill-0, #2BA8B0)"/>
<path id="Vector_2" d="M20.5837 14.3031C24.0022 14.2964 27.424 14.2997 30.8425 14.3031C30.8325 15.4548 30.8259 16.6016 30.8358 17.75C27.4074 17.7733 23.9823 17.75 20.5539 17.76C20.5937 16.6082 20.587 15.4548 20.5837 14.3031Z" fill="var(--fill-0, #2BA8B0)"/>
<path id="Vector_3" d="M20.597 21.1072C29.1183 21.1106 37.6397 21.1305 46.161 21.0973C46.2206 22.259 46.2008 23.4191 46.2041 24.5841C37.6562 24.5808 29.1084 24.5908 20.5622 24.5775C20.592 23.4191 20.5821 22.2656 20.5986 21.1072H20.597Z" fill="var(--fill-0, #2BA8B0)"/>
<path id="Vector_4" d="M20.5804 27.9945C25.1367 27.9879 29.6881 28.0045 34.2411 27.9879C34.2411 29.1396 34.2378 30.2897 34.251 31.4448C29.6914 31.4282 25.1334 31.4315 20.5771 31.4415C20.587 30.293 20.587 29.1429 20.5804 27.9945Z" fill="var(--fill-0, #2BA8B0)"/>
<path id="Vector_5" d="M37.7026 31.4348C37.7125 30.2864 37.7258 29.1363 37.7424 27.9879C40.5845 28.0111 43.4216 28.0444 46.2604 28.0577C46.1908 29.2028 46.1975 30.3529 46.2041 31.5013C43.3719 31.4215 40.5381 31.4847 37.7026 31.4348Z" fill="var(--fill-0, #2BA8B0)"/>
<path id="Vector_6" d="M20.5738 34.8785C29.1183 34.8818 37.6596 34.8818 46.2008 34.8785C46.2041 36.0169 46.2074 37.1537 46.1942 38.2955C37.6562 38.2589 29.1183 38.2789 20.5804 38.2855C20.587 37.1504 20.587 36.0136 20.5738 34.8785Z" fill="var(--fill-0, #2BA8B0)"/>
<path id="Vector_7" d="M32.5633 41.7541C37.1097 41.7475 41.6577 41.7541 46.2041 41.7508V45.1246C41.6511 45.098 37.0964 45.098 32.5434 45.1213C32.5401 43.9994 32.5335 42.8793 32.5633 41.7541Z" fill="var(--fill-0, #2BA8B0)"/>
</g>
<defs>
<clipPath id="clip0_0_158">
<rect width="72" height="72.5806" fill="white"/>
</clipPath>
</defs>
</svg>
