<svg preserveAspectRatio="none" width="100%" height="100%" overflow="visible" style="display: block;" viewBox="0 0 67 72" fill="none" xmlns="http://www.w3.org/2000/svg">
<g id="Layer_1" clip-path="url(#clip0_0_257)">
<path id="Vector" d="M44.722 0.00980749C47.4236 -0.00860555 50.1286 0.00311184 52.8336 0.00311184C52.8184 2.65794 52.8437 5.31444 52.8184 7.97261C57.5463 7.93244 62.2724 7.99102 67.002 7.94248C66.9834 9.29333 66.9902 10.6458 66.9935 11.9967C62.2825 12.0185 57.5698 12 52.8588 12.0067C52.8706 24.002 52.8656 35.9989 52.8622 47.9942C55.5857 48.0009 58.3093 47.9875 61.0311 48.0042C61.0126 56.0039 61.0058 64.0035 61.0311 72.0031C40.7251 71.9998 20.4174 72.0065 0.111447 71.9998C0.114816 59.9995 0.10471 47.9975 0.114816 35.9973C12.289 36.019 24.4598 35.9855 36.6339 36.0123C36.6272 40.0113 36.6457 44.0119 36.6238 48.0109C39.3322 47.9841 42.0389 48.0009 44.7472 48.0009C44.7439 36.0023 44.7573 24.0053 44.7405 12.0067C34.2338 12.0134 23.7305 11.9883 13.2221 12.0185C13.2507 13.2036 13.244 14.387 13.2473 15.5722C15.0933 17.38 16.9461 19.1845 18.7517 21.0308C19.6258 21.0492 20.5 21.0425 21.3691 21.0459C21.3809 23.7091 21.4028 26.3756 21.3657 29.0421C15.2769 29.0488 9.18817 29.0204 3.09941 29.0539C3.06572 26.3873 3.09604 23.7174 3.09941 21.0475C4.13357 20.8919 5.50123 21.4777 6.24232 20.5102C7.89968 18.8463 9.56377 17.1908 11.2632 15.5672C11.2784 14.3887 11.2666 13.2069 11.2885 12.0268C7.5645 11.9867 3.84387 12 0.121553 12.0201C-0.0755109 10.6726 0.0356533 9.31007 0.00365145 7.95754C14.9098 7.96759 29.8175 7.94917 44.727 7.96759C44.6967 5.31611 44.7304 2.66296 44.7203 0.0114814L44.722 0.00980749ZM8.52624 21.0475C10.9719 21.0726 13.4175 21.0074 15.8648 21.0743C14.6537 19.8323 13.4562 18.5701 12.1408 17.4419C10.9466 18.6572 9.70525 19.8239 8.52455 21.0475H8.52624ZM5.13236 23.0512C5.22163 24.3468 4.95719 25.7579 5.25195 26.9816C9.94442 27.0268 14.642 26.9816 19.3378 27C19.3108 25.686 19.3159 24.3703 19.3311 23.0546C14.5982 23.0445 9.86526 23.0512 5.13068 23.0512H5.13236ZM4.07293 39.9745C4.08809 49.3266 4.07967 58.6804 4.0763 68.0326C21.6874 68.0292 39.2985 68.0292 56.913 68.0326C56.8978 62.6962 56.9012 57.3581 56.9096 52.0183C48.7896 52.0149 40.6662 52.0149 32.5461 52.0183C32.5461 48.0042 32.536 43.9935 32.5529 39.9812C23.0584 39.9845 13.564 39.9962 4.07293 39.9745Z" fill="var(--fill-0, #2BA8B0)"/>
<path id="Vector_2" d="M54.8511 24.0173C54.7955 20.6578 54.8208 17.2999 54.8359 13.9403C57.5308 13.9922 60.2274 13.9705 62.9223 13.9554C62.9408 17.3066 62.9257 20.6594 62.9375 24.014C60.2426 24.0022 57.546 23.9989 54.8511 24.0173Z" fill="var(--fill-0, #2BA8B0)"/>
<path id="Vector_3" d="M8.16383 52.0302C8.20425 49.3637 8.1453 46.6971 8.19752 44.0306C10.884 44.0758 13.5721 44.0155 16.262 44.0557C16.2872 46.7072 16.2064 49.3603 16.2738 52.0118C13.5688 52.0269 10.8671 51.9967 8.16215 52.0302H8.16383Z" fill="var(--fill-0, #2BA8B0)"/>
<path id="Vector_4" d="M20.3447 44.0306C23.0682 44.1009 25.7935 44.0055 28.517 44.049C28.5203 44.6868 28.4985 45.3279 28.5018 45.9723C28.5321 47.9358 28.2896 49.8993 28.5203 51.8645L28.394 51.975C25.721 52.0754 23.043 51.9783 20.3666 52.0202C20.274 49.357 20.3936 46.6938 20.3447 44.0306Z" fill="var(--fill-0, #2BA8B0)"/>
<path id="Vector_5" d="M8.17394 56.066C10.8655 56.0409 13.5587 56.0292 16.2536 56.0593C16.2721 58.7225 16.2468 61.3891 16.2603 64.0523C13.5688 64.0255 10.8789 64.0489 8.18573 64.0405C8.1672 61.384 8.18573 58.7225 8.17394 56.066Z" fill="var(--fill-0, #2BA8B0)"/>
<path id="Vector_6" d="M20.3329 56.0342C23.0245 56.0895 25.721 56.0192 28.4126 56.0443C28.3822 57.293 28.5389 58.5367 28.5305 59.7871C28.549 61.2016 28.2862 62.6227 28.5203 64.0339C25.7935 64.0623 23.0683 64.0087 20.3447 64.064C20.3329 61.3891 20.37 58.7091 20.3329 56.0342Z" fill="var(--fill-0, #2BA8B0)"/>
<path id="Vector_7" d="M32.5408 56.0409C35.2458 56.0326 37.9525 56.0844 40.6575 56.0292C40.6945 58.7041 40.6457 61.3807 40.6844 64.0556C37.9643 64.0305 35.2441 64.0339 32.5273 64.0523C32.5644 61.3824 32.5425 58.7108 32.5391 56.0409H32.5408Z" fill="var(--fill-0, #2BA8B0)"/>
<path id="Vector_8" d="M44.7267 56.0627C47.425 56.0074 50.1266 56.0694 52.8249 56.056C52.8282 58.7192 52.8215 61.3824 52.8282 64.0456C50.1266 64.0372 47.4284 64.0422 44.7267 64.0389C44.7149 61.379 44.7048 58.7209 44.7267 56.061V56.0627Z" fill="var(--fill-0, #2BA8B0)"/>
</g>
<defs>
<clipPath id="clip0_0_257">
<rect width="67" height="72" fill="white"/>
</clipPath>
</defs>
</svg>
