<svg preserveAspectRatio="none" width="100%" height="100%" overflow="visible" style="display: block;" viewBox="0 0 97 64" fill="none" xmlns="http://www.w3.org/2000/svg">
<g id="Layer_1" clip-path="url(#clip0_0_235)">
<path id="Vector" d="M53.4459 20.7768C54.5996 16.527 57.4331 13.9805 61.0131 13.9805C63.2697 13.9805 65.5263 15.043 67.5454 17.0329L69.9717 19.4445C70.0735 18.3315 70.5485 17.3196 71.346 16.527L77.2844 10.6245C77.3184 10.3884 77.3693 10.1523 77.4202 9.89934H50.3239V25.2121H52.2412L53.4628 20.7431L53.4459 20.7768Z" fill="var(--fill-0, #2BA8B0)"/>
<path id="Vector_2" d="M46.2519 9.93307H16.6276V25.2458H46.2519V9.93307Z" fill="var(--fill-0, #2BA8B0)"/>
<path id="Vector_3" d="M33.6963 29.3101V44.6398H46.9475L51.1214 29.3101H33.6963Z" fill="var(--fill-0, #2BA8B0)"/>
<path id="Vector_4" d="M45.9295 48.6872H16.6276V64H46.2519V53.19C45.7938 51.8577 45.675 50.3231 45.9465 48.6872H45.9295Z" fill="var(--fill-0, #2BA8B0)"/>
<path id="Vector_5" d="M29.6243 29.3101H0V44.6229H29.6243V29.3101Z" fill="var(--fill-0, #2BA8B0)"/>
<path id="Vector_6" d="M81.3226 29.3101L80.6099 30.0184L86.9556 36.3257C89.5006 38.8553 90.5356 41.8572 89.806 44.5892C89.806 44.6061 89.806 44.6229 89.7891 44.6398H97.017V29.327H81.3395L81.3226 29.3101Z" fill="var(--fill-0, #2BA8B0)"/>
<path id="Vector_7" d="M53.378 57.9626C52.2751 57.9626 51.2402 57.7602 50.3239 57.4061V64H79.9482V51.2L56.4999 57.5072C55.431 57.7939 54.379 57.9457 53.378 57.9457V57.9626Z" fill="var(--fill-0, #2BA8B0)"/>
<path id="Vector_8" d="M78.1158 31.3845L71.5666 37.8941C71.1763 38.2819 70.6504 38.4843 70.1244 38.4843C69.5984 38.4843 69.0894 38.2819 68.6822 37.8941C68.4277 37.6411 68.2919 37.3375 68.1901 37.034C68.3768 37.0846 68.5634 37.152 68.7501 37.152C69.276 37.152 69.785 36.9497 70.1922 36.5618L80.8136 26.0047C81.611 25.2121 81.611 23.9304 80.8136 23.1378L77.5559 19.8999L82.8496 14.6382C83.0023 14.6551 83.155 14.6888 83.3247 14.6888C84.19 14.6888 85.0553 14.3515 85.717 13.6938L93.6915 5.76759C95.0149 4.45217 95.0149 2.31041 93.6915 0.994993C92.368 -0.320422 90.2132 -0.320422 88.8898 0.994993L80.9154 8.92121C80.1349 9.69697 79.8295 10.7594 79.9652 11.7713L73.2293 18.4664C72.4319 19.259 72.4319 20.5407 73.2293 21.3333L76.487 24.5713L73.8571 27.1852L65.5942 18.9723C61.7427 15.1441 57.467 16.274 56.0418 21.502L48.8139 48.0295C47.3887 53.2574 50.4936 56.3436 55.7534 54.927L82.4424 47.7428C87.7021 46.3262 88.8389 42.0764 84.9874 38.2482L78.0819 31.3845H78.1158Z" fill="var(--fill-0, #2BA8B0)"/>
</g>
<defs>
<clipPath id="clip0_0_235">
<rect width="97" height="64" fill="white"/>
</clipPath>
</defs>
</svg>
