<svg preserveAspectRatio="none" width="100%" height="100%" overflow="visible" style="display: block;" viewBox="0 0 65.0534 69.9998" fill="none" xmlns="http://www.w3.org/2000/svg">
<g id="Group 362">
<path id="Vector" d="M40.8993 69.9998C40.8993 66.4893 40.8993 63.2455 40.8993 60.004C40.8993 44.8932 40.9062 29.7823 40.8831 14.6715C40.8831 13.3565 40.9988 12.2806 42.6741 12.2783C47.4041 12.2783 52.1317 12.2783 57.1069 12.2783V67.8939H65.0534V69.9998H40.8993ZM51.1066 19.6027H45.5852V24.8856H51.1066V19.6027ZM45.5343 34.9388H51.1297V29.7226H45.5343V34.9388ZM45.5644 54.9188H51.0742V49.6727H45.5644V54.9188ZM51.1274 39.6194H45.5945V44.8817H51.1274V39.6194ZM45.5968 65.0065H51.0695V60.0109H45.5968V65.0065Z" fill="var(--fill-0, #2BA8B0)"/>
<path id="Vector_2" d="M24.1549 69.9654H0.225197C-0.355631 68.4251 0.190487 67.8297 1.82421 67.917C3.35612 67.9975 4.90191 67.8481 6.42919 67.9699C8.0768 68.1009 8.62292 67.4825 8.60209 65.8572C8.53035 60.0317 8.56969 54.2062 8.56738 48.3784C8.56738 37.2815 8.56738 26.1846 8.56506 15.0854C8.56506 14.2601 8.56506 13.4348 8.56506 12.2048C10.9323 12.2048 13.133 12.2071 15.3337 12.2048C17.4279 12.2002 19.5221 12.1796 21.6164 12.1865C24.1341 12.1933 24.4696 12.5313 24.4511 15.1176C24.4117 20.2488 24.3122 25.38 24.303 30.5135C24.2822 42.999 24.303 55.4821 24.296 67.9676C24.296 68.5745 24.2127 69.1791 24.1549 69.9654ZM19.941 24.8581V19.4717H14.3271C13.6583 25.0145 13.855 25.2306 19.1658 25.0145C19.3648 25.0053 19.5615 24.9363 19.941 24.8558V24.8581ZM14.2669 44.9324H19.9479V39.6103H14.2669V44.9324ZM19.934 49.475C18.2725 49.475 16.8725 49.3785 15.5003 49.5279C15.0143 49.5808 14.2553 50.1946 14.2067 50.6199C14.0424 52.0222 14.1443 53.4545 14.1443 54.9051H19.9364V49.475H19.934ZM14.2368 34.8998H19.9271V29.656H14.2368V34.8998ZM19.9086 65.0595V59.7007C18.2772 59.7007 16.7522 59.6202 15.2481 59.7558C14.857 59.7903 14.2738 60.4685 14.2091 60.9145C13.6143 64.9284 13.9198 65.2411 18.055 65.1721C18.6058 65.1629 19.1542 65.1077 19.9063 65.0595H19.9086Z" fill="var(--fill-0, #2BA8B0)"/>
<path id="Vector_3" d="M38.178 69.9128H27.1724V12.6236C30.5578 12.6236 33.8901 12.6121 37.2223 12.6282C38.7033 12.6351 38.3423 13.7938 38.347 14.6076C38.384 19.879 38.3932 25.1505 38.3817 30.4242C38.3585 42.9097 38.3215 55.3974 38.2822 67.8829C38.2822 68.4944 38.2197 69.1082 38.1757 69.9151L38.178 69.9128ZM35.5562 19.479H30.1205V24.8815H35.5562V19.479ZM35.4636 34.9715V29.7345H30.1135V34.9715H35.4636ZM35.5886 54.8894V49.6478H30.1482V54.8894H35.5886ZM30.139 39.5831V44.9258H35.4891V39.5831H30.139Z" fill="var(--fill-0, #2BA8B0)"/>
<path id="Vector_4" d="M5.37183 10.6488V5.80957H23.3636V10.6488H5.37183Z" fill="var(--fill-0, #2BA8B0)"/>
<path id="Vector_5" d="M59.8722 5.88086V10.6971H42.3201V5.88086H59.8722Z" fill="var(--fill-0, #2BA8B0)"/>
<path id="Vector_6" d="M25.5388 4.72889V0H39.7749V4.72889H25.5388Z" fill="var(--fill-0, #2BA8B0)"/>
<path id="Vector_7" d="M40.4158 11.0949C36.2806 11.0949 32.4624 11.1132 28.6465 11.0834C27.6191 11.0742 26.5916 10.9201 25.4438 10.8236V6.2832H40.0803C40.1751 7.63497 40.2793 9.11548 40.4158 11.0949Z" fill="var(--fill-0, #2BA8B0)"/>
</g>
</svg>
