<svg preserveAspectRatio="none" width="100%" height="100%" overflow="visible" style="display: block;" viewBox="0 0 77 80" fill="none" xmlns="http://www.w3.org/2000/svg">
<g id="Layer_1" clip-path="url(#clip0_0_214)">
<path id="Vector" fill-rule="evenodd" clip-rule="evenodd" d="M2.16862 35.9129C5.24317 36.7226 16.2717 40.8709 20.2522 42.259L38.3944 48.5598C39.0586 48.5915 61.9652 40.4786 65.6922 39.1086C68.4006 38.113 72.2849 36.5366 74.8455 35.9265C74.6319 35.7337 74.7 35.7655 74.3596 35.5727C74.1461 35.457 74.0991 35.4366 73.855 35.3345L38.5892 22.978L2.16862 35.9129Z" fill="var(--fill-0, #2BA8B0)"/>
<path id="Vector_2" fill-rule="evenodd" clip-rule="evenodd" d="M2.16862 67.0696C3.06047 67.8476 19.2922 73.3069 20.1771 73.6153L38.4132 80C39.1924 80.0386 61.7446 71.8666 65.7626 70.4786C67.3328 69.9388 68.7034 69.4239 70.2336 68.8977L74.193 67.5028C74.8572 67.1626 74.4981 67.3872 74.8572 67.0538C72.3624 66.4822 68.3772 64.8605 65.8565 63.9351C63.986 63.2547 63.256 62.6355 61.3855 63.2865L47.8058 68.0835C46.5361 68.5666 39.4623 71.1953 38.5915 71.2202C37.7466 71.252 19.5786 64.7131 15.9525 63.4021C13.5632 62.5335 13.6172 63.1254 11.3219 63.9034C8.34824 64.9059 5.03429 66.2894 2.16862 67.0719V67.0696Z" fill="var(--fill-0, #2BA8B0)"/>
<path id="Vector_3" fill-rule="evenodd" clip-rule="evenodd" d="M2.24137 45.5954C3.41956 46.2645 38.04 58.3375 38.3873 58.3511C39.5045 58.4101 70.7406 47.056 74.8126 45.6929C74.1531 45.051 73.5359 45.017 72.6299 44.7085C71.8648 44.4454 71.1067 44.1824 70.3885 43.9238C62.7702 41.1454 65.3402 41.2815 56.7901 44.323C54.3821 45.1848 39.8706 50.5852 38.6009 50.6373C37.5964 50.6759 19.5598 44.1256 15.929 42.7875C12.0706 41.3722 12.9084 41.6943 6.78045 43.8603C5.97543 44.1438 5.27603 44.4001 4.54612 44.6518C3.71528 44.9354 2.8023 45.1395 2.24372 45.5976L2.24137 45.5954Z" fill="var(--fill-0, #2BA8B0)"/>
<path id="Vector_4" fill-rule="evenodd" clip-rule="evenodd" d="M39.5256 60.5625V68.8637C41.5417 68.4191 47.3364 66.1511 49.9979 65.2257C54.2624 63.7401 53.2649 65.5795 53.2438 55.4071C51.4343 55.8244 44.0553 58.6142 41.1427 59.6053C39.1267 60.2812 39.7721 60.0363 39.5256 60.5625Z" fill="var(--fill-0, #2BA8B0)"/>
<path id="Vector_5" fill-rule="evenodd" clip-rule="evenodd" d="M24.0566 64.2141L37.4955 68.934L37.4884 60.1202L24.0778 55.4593L24.0566 64.2141Z" fill="var(--fill-0, #2BA8B0)"/>
<path id="Vector_6" fill-rule="evenodd" clip-rule="evenodd" d="M0.00704097 55.575C1.21105 56.3665 8.20272 58.6936 9.96531 59.1699L10.0123 50.5874L0 46.9517L0.00704097 55.5727V55.575Z" fill="var(--fill-0, #2BA8B0)"/>
<path id="Vector_7" fill-rule="evenodd" clip-rule="evenodd" d="M12.0354 59.8821L22.0476 63.4815L22.0288 54.6541L12.0823 51.2225L12.0354 59.8821Z" fill="var(--fill-0, #2BA8B0)"/>
<path id="Vector_8" fill-rule="evenodd" clip-rule="evenodd" d="M55.2857 54.6292L55.2927 63.2887L65.2791 59.8367L65.2651 51.1839L55.2857 54.6292Z" fill="var(--fill-0, #2BA8B0)"/>
<path id="Vector_9" fill-rule="evenodd" clip-rule="evenodd" d="M67.3069 50.3924V59.0021L76.9812 55.7156L77 47.0742L67.3069 50.3924Z" fill="var(--fill-0, #2BA8B0)"/>
<path id="Vector_10" fill-rule="evenodd" clip-rule="evenodd" d="M35.6202 1.36993C35.1602 0.714448 34.8622 0.29712 34.1557 0C31.5013 2.97573 32.5527 5.37537 34.3763 7.95872C37.0965 11.8099 32.9799 15.0828 34.4022 16.1034C36.6435 17.7115 37.7677 11.0365 37.1575 8.89544C36.2915 5.84259 33.1723 5.1667 35.6202 1.36766V1.36993Z" fill="var(--fill-0, #2BA8B0)"/>
<path id="Vector_11" fill-rule="evenodd" clip-rule="evenodd" d="M42.6589 3.08687C42.3796 2.87367 42.3397 2.7716 42.0792 2.56067L41.1943 2.05262C38.7535 4.24586 39.5116 7.56861 41.1943 9.75505C44.2407 13.7151 40.1171 16.9358 41.2601 18.0948C43.309 20.1724 44.8463 13.3636 44.1609 10.998C43.6094 9.06328 42.7645 8.76616 42.1191 7.51418C40.962 5.28918 42.2129 4.66546 42.6589 3.0914V3.08687Z" fill="var(--fill-0, #2BA8B0)"/>
</g>
<defs>
<clipPath id="clip0_0_214">
<rect width="77" height="80" fill="white"/>
</clipPath>
</defs>
</svg>
