<svg width="40" height="56" viewBox="0 0 40 56" fill="none" xmlns="http://www.w3.org/2000/svg">
<path d="M39.9969 19.8089C39.9613 23.1196 39.2004 26.7162 37.7374 30.1507C33.8401 39.2937 27.9044 47.0941 21.2604 54.4188C20.5289 55.2262 19.6907 55.4663 18.9004 54.5733C11.2388 45.9242 3.91584 37.0382 0.779427 25.6442C-2.38637 14.1295 4.39063 2.7937 15.6897 0.457111C28.2014 -2.13026 39.3102 6.52796 40 19.8074H39.9969V19.8089ZM31.9657 19.6422C31.9889 12.9995 26.6517 7.57392 20.0758 7.55404C13.4844 7.53416 7.94151 12.9566 7.91213 19.4648C7.88274 26.0602 13.2617 31.3756 19.9706 31.3848C26.6533 31.394 31.9425 26.2162 31.9641 19.6407L31.9657 19.6422Z" fill="#2BA8B0"/>
</svg>
