<svg preserveAspectRatio="none" width="100%" height="100%" overflow="visible" style="display: block;" viewBox="0 0 100 102.186" fill="none" xmlns="http://www.w3.org/2000/svg">
<g id="Group 338">
<path id="Vector" d="M92.0843 71.9251C91.9601 69.1479 91.1312 66.4957 87.5675 64.0977H87.651C85.9098 60.0988 84.1708 56.0591 82.4703 52.0193C81.3501 50.2935 79.7353 49.199 77.3324 49.1581H34.8969C32.494 49.2012 30.9176 50.2935 29.7997 52.0193C28.0585 56.0591 26.3195 60.0988 24.5783 64.0977H24.7025C21.0981 66.4957 20.2692 69.1479 20.145 71.9251V88.9289H92.0888V71.9251H92.0843ZM30.3778 63.4664C30.834 61.4885 31.2902 59.5947 31.7464 57.7417C32.1597 55.975 32.5346 54.2492 32.9479 52.6074C33.0721 52.1033 33.6119 51.6809 34.1494 51.6809H78.0777C78.6174 51.6809 79.1549 52.101 79.2791 52.6074C79.6947 54.2901 80.0673 55.975 80.4806 57.7417C80.9368 59.5947 81.393 61.4885 81.8492 63.4664C81.9734 64.0977 81.6008 64.6018 80.9797 64.6018H31.2496C30.6285 64.6018 30.2559 64.0977 30.3801 63.4664H30.3778ZM38.2913 76.1761C38.2913 76.8074 37.7515 77.3115 37.0469 77.3115H26.5205C20.8835 77.3115 22.8732 67.295 26.5205 69.0208L36.6743 73.903C37.4625 74.2822 38.2913 74.5774 38.2913 75.4176V76.1761ZM69.0418 84.5508C69.0418 85.3933 68.3372 86.0654 67.5083 86.0654H44.7142C43.8854 86.0654 43.1808 85.391 43.1808 84.5508V82.9521C43.1808 82.1097 43.8854 81.3944 44.7142 81.3944H67.5083C68.3372 81.3944 69.0418 82.1097 69.0418 82.9521V84.5508ZM82.5516 77.3115H72.0251C71.3205 77.3115 70.783 76.8074 70.783 76.1761V75.4176C70.783 74.5752 71.6118 74.2822 72.4 73.903L82.5538 69.0208C86.2012 67.295 88.1908 77.3115 82.5538 77.3115H82.5516Z" fill="var(--fill-0, #192643)"/>
<path id="Vector_2" d="M83.6716 95.9981H90.7178C91.4631 95.9981 92.0864 95.3669 92.0864 94.6084V90.1894H82.3053V94.6084C82.3053 95.3669 82.9263 95.9981 83.6739 95.9981H83.6716Z" fill="var(--fill-0, #192643)"/>
<path id="Vector_3" d="M96.809 40.8244L99.4603 36.7846L72.7298 18.7295C72.4814 20.4962 71.9846 22.138 71.2799 23.6526L96.809 40.8244Z" fill="var(--fill-0, #192643)"/>
<path id="Vector_4" d="M55.1164 18.9386H56.4015C59.3848 18.9386 61.126 17.0879 61.126 13.9723C61.126 10.8568 59.3848 9.00611 56.4015 9.00611H52.2166V23.6528H55.1187V18.9386H55.1164ZM55.1164 11.8264H56.3585C57.5194 11.8264 58.1404 12.5417 58.1404 13.9723C58.1404 15.403 57.5194 16.1183 56.3585 16.1183H55.1164V11.8264Z" fill="var(--fill-0, #192643)"/>
<path id="Vector_5" d="M55.5726 32.6587C64.4414 32.6587 71.6525 25.3353 71.6525 16.3293C71.6525 7.32333 64.4414 0 55.5726 0C46.7039 0 39.4928 7.32333 39.4928 16.3293C39.4928 25.3353 46.6632 32.6587 55.5726 32.6587ZM55.5726 3.99888C62.244 3.99888 67.6732 9.51239 67.6732 16.3293C67.6732 23.1463 62.244 28.6189 55.5726 28.6189C48.9013 28.6189 43.4292 23.1054 43.4292 16.3293C43.4292 9.55326 48.8584 3.99888 55.5726 3.99888Z" fill="var(--fill-0, #192643)"/>
<path id="Vector_6" d="M4.80815 97.2605V48.1453L40.159 24.3246C39.3708 22.8509 38.8333 21.2523 38.542 19.5696L1.07726 44.78L0 45.4953V102.186H100V97.2605H4.80815Z" fill="var(--fill-0, #192643)"/>
<path id="Vector_7" d="M95.3996 63.0035V60.6055C95.3996 59.8902 94.8192 59.3429 94.1146 59.3429H89.6791C88.7667 59.3429 87.9379 59.7222 87.4004 60.3535L88.6854 63.3827C89.1009 63.6779 89.4736 63.9731 89.8033 64.266H94.1123C94.817 64.266 95.3974 63.6779 95.3974 63.0035H95.3996Z" fill="var(--fill-0, #192643)"/>
<path id="Vector_8" d="M23.5394 63.3827L24.8244 60.3535C24.2847 59.7222 23.4558 59.3429 22.5864 59.3429H18.1102C17.4056 59.3429 16.8252 59.8902 16.8252 60.6055V63.0035C16.8252 63.6779 17.4056 64.266 18.1102 64.266H22.4192C22.7512 63.9708 23.1239 63.6779 23.5394 63.3827Z" fill="var(--fill-0, #192643)"/>
<path id="Vector_9" d="M21.509 95.9981H28.553C29.2983 95.9981 29.9216 95.3669 29.9216 94.6084V90.1894H20.1404V94.6084C20.1404 95.3669 20.7615 95.9981 21.509 95.9981Z" fill="var(--fill-0, #192643)"/>
</g>
</svg>
