<svg preserveAspectRatio="none" width="100%" height="100%" overflow="visible" style="display: block;" viewBox="0 0 82 75" fill="none" xmlns="http://www.w3.org/2000/svg">
<g id="Layer_1" clip-path="url(#clip0_0_181)">
<path id="Vector" d="M21.8737 55.9186C17.362 56.0407 12.903 55.2907 8.5669 53.7209C6.46029 52.9535 4.56433 51.8547 2.75616 50.5465C1.0182 49.2907 0.0702205 47.686 0.0702205 45.5407C0.0702205 44.0233 0.0351103 42.5233 0.0526654 41.0058C0.0877756 37.5872 1.7204 35.0407 4.44145 33.1047C7.46093 30.9767 10.8842 29.8779 14.5181 29.3023C19.2931 28.5523 24.0681 28.5 28.8431 29.2326C32.6876 29.8256 36.3216 31.0116 39.5868 33.2267C42.3956 35.1279 43.9931 37.657 43.8352 41.1279C43.7649 42.75 43.7649 44.3721 43.7123 45.9942C43.6596 47.4593 43.0276 48.6279 41.9392 49.6395C39.9379 51.4884 37.6206 52.7791 35.0576 53.7035C30.8444 55.2209 26.4907 56.0233 21.9088 55.9186H21.8737ZM22.7866 31.7267C18.2398 31.6919 14.4128 32.093 10.7613 33.4535C8.918 34.1337 7.09227 35.0233 5.51231 36.157C2.3875 38.4244 2.44016 41.1977 5.44209 43.6395C5.70542 43.8663 6.00385 44.0756 6.31985 44.2151C8.2158 45.0872 10.0591 46.186 12.0604 46.7616C18.5909 48.6628 25.2092 48.6279 31.7748 46.814C34.3905 46.0814 36.7955 44.8954 38.7793 43.0116C40.9561 40.9186 40.9737 38.7558 38.867 36.6628C37.094 34.9012 34.9523 33.75 32.5297 33.1221C29.124 32.25 25.6832 31.5872 22.8041 31.7267H22.7866Z" fill="var(--fill-0, #192643)"/>
<path id="Vector_2" d="M59.8103 27.3488C55.7551 27.436 51.893 26.5465 48.0484 25.5349C45.064 24.7326 42.4483 23.2674 40.1486 21.2093C39.1304 20.3023 38.5686 19.2384 38.3755 17.9302C37.9542 15.0174 38.1122 12.1395 38.7266 9.27907C39.0251 7.86628 39.9204 6.76744 40.921 5.7907C42.6063 4.13372 44.59 2.89535 46.8371 2.16279C55.0529 -0.558139 63.3389 -0.645349 71.66 1.63953C74.2933 2.35465 76.6457 3.68023 78.6821 5.44186C80.7009 7.18605 82 9.29651 81.8069 12.1221C81.7016 13.5 81.7367 14.9128 81.8069 16.2907C81.9122 18.8372 80.8238 20.7209 78.805 22.2209C75.6275 24.5756 71.9585 25.7267 68.149 26.4419C65.4104 26.9477 62.6016 27.0872 59.8103 27.4012V27.3488ZM58.915 3C57.6159 3.10465 55.1407 3.15698 52.7356 3.57558C49.1544 4.20349 45.7311 5.40698 42.9574 7.90116C40.7981 9.83721 40.7455 12.1221 42.817 14.1977C44.8534 16.2558 47.4515 17.3023 50.155 18.0523C56.1062 19.6919 62.1627 19.8314 68.1841 18.5756C70.3258 18.1395 72.3622 17.1453 74.3811 16.2558C75.8908 15.593 77.067 14.4593 77.9623 13.0291C78.8927 11.564 78.7699 10.186 77.7868 8.82558C76.5755 7.1686 74.9077 6.17442 73.0293 5.40698C68.8688 3.69767 64.5327 3 58.915 2.98256V3Z" fill="var(--fill-0, #192643)"/>
<path id="Vector_3" d="M43.0803 61.936C44.274 65.6337 43.8 67.4826 41.3599 69.3837C37.4802 72.4012 33.0212 74.0058 28.1584 74.6163C23.717 75.1744 19.2755 75.1221 14.8516 74.5465C10.2346 73.9535 6.05652 72.2616 2.35239 69.436C0.947975 68.3721 0.122884 67.1163 0.0877736 65.3372C0.0702185 64.2209 -0.210664 63.0872 0.333545 61.7267C1.0182 62.0756 1.52729 62.2849 1.98373 62.5988C6.8465 65.9128 12.271 67.4826 18.1344 67.7267C23.1728 67.936 28.176 67.8663 33.109 66.6453C36.0933 65.8953 38.8144 64.657 41.3423 62.9302C41.7988 62.6163 42.3079 62.3721 43.0627 61.936H43.0803Z" fill="var(--fill-0, #192643)"/>
<path id="Vector_4" d="M81.0871 23.7209C81.4207 24.2442 81.8245 24.593 81.8596 24.9942C82.1931 27.7326 81.368 30.0349 78.9805 31.6221C76.1366 33.5058 73.0469 34.8314 69.7465 35.6512C62.7947 37.3779 55.8253 37.064 48.9437 35.4419C45.6433 34.657 42.659 32.9302 40.0432 30.7674C38.0946 29.1453 37.6733 26.7035 38.7968 23.686C39.3059 23.9302 39.815 24.1221 40.2539 24.4186C44.274 27.1744 48.7506 28.6395 53.5783 29.2674C58.4937 29.8954 63.3565 29.6686 68.2368 29.093C72.2569 28.6221 75.8382 27.0174 79.2439 24.907C79.8232 24.5581 80.3849 24.1919 81.0871 23.7558V23.7209Z" fill="var(--fill-0, #192643)"/>
<path id="Vector_5" d="M43.3437 52.5349C44.0634 55.1337 43.9054 57.2267 41.9744 59.093C39.7449 61.2384 37.1818 62.843 34.215 63.6628C25.929 65.9477 17.6254 66.1047 9.32183 63.6454C6.35501 62.7558 3.87974 61.0116 1.54491 59.0581C0.596933 58.2733 0.105389 57.2442 0.0702788 56.0233C0.0351686 54.8895 -0.193048 53.7384 0.491602 52.4128C3.24776 53.7733 5.86347 55.2384 8.60207 56.3721C11.3056 57.4884 14.2373 57.7849 17.1514 58.064C20.1885 58.343 23.2079 58.6744 26.2274 58.1686C29.0889 57.6977 32.0557 57.4186 34.7768 56.5291C37.6031 55.6046 40.2189 54.0174 43.3261 52.5523L43.3437 52.5349Z" fill="var(--fill-0, #192643)"/>
<path id="Vector_6" d="M46.5386 47.1279C49.8741 47.5988 52.8585 48.1221 55.8604 48.436C61.7238 49.0465 67.5521 48.6802 73.1698 46.8488C75.0306 46.2384 76.7686 45.2093 78.5416 44.3547C79.0683 44.093 79.5072 43.6919 79.9987 43.3953C81.0345 42.8198 81.8947 43.3081 81.9122 44.4593C81.9473 46.7791 81.2802 48.6802 79.3667 50.2674C76.4877 52.657 73.0995 53.8953 69.5885 54.7674C62.7596 56.4767 55.9131 56.2151 49.1192 54.436C48.4346 54.2616 47.7324 54.0872 47.1355 53.7384C46.6615 53.4767 46.0647 53.0058 45.9944 52.5523C45.7136 50.7558 45.38 48.907 46.5211 47.1105L46.5386 47.1279Z" fill="var(--fill-0, #192643)"/>
<path id="Vector_7" d="M46.3104 37.8314C47.4691 37.3081 48.5926 37.8314 49.6986 38.0756C55.9482 39.3837 62.1978 39.593 68.5177 38.5116C72.5027 37.8314 76.1893 36.5407 79.5072 34.2035C80.0338 33.8372 80.6834 33.6279 81.4207 33.2616C82.2633 34.6221 82.0527 35.8779 81.8069 37.0988C81.5436 38.3721 81.0696 39.5756 79.9812 40.3779C79.1385 41.0058 78.2783 41.6163 77.3654 42.1221C73.3278 44.3547 69.0443 45.6977 64.4098 46.064C59.705 46.4302 55.0704 46.2558 50.4534 45.3314C49.5406 45.1395 48.6453 44.843 47.7499 44.6163C46.8371 44.3895 46.3982 43.7616 46.1524 42.9419C45.7662 41.6686 45.854 39.75 46.328 37.8314H46.3104Z" fill="var(--fill-0, #192643)"/>
<path id="Vector_8" d="M81.4031 52.2384C82.158 54.9593 81.4909 57.0349 79.7529 58.814C77.9448 60.6628 75.7328 61.9535 73.3629 63.0174C69.7816 64.6047 65.9897 65.1802 62.1276 65.3895C57.6686 65.6337 53.2623 65.1628 48.9437 64.0116C46.0998 63.2442 45.8716 62.8954 45.8364 59.8779C45.8364 58.8488 45.6433 57.7674 46.5738 56.7209C46.8722 56.7209 47.3286 56.6163 47.7499 56.7209C50.5588 57.5233 53.4554 57.8198 56.352 58.1686C61.5483 58.7965 66.6042 58.1163 71.6249 56.9302C74.4689 56.25 77.1021 54.9593 79.5072 53.25C80.0338 52.8663 80.6658 52.6395 81.4207 52.2384H81.4031Z" fill="var(--fill-0, #192643)"/>
</g>
<defs>
<clipPath id="clip0_0_181">
<rect width="82" height="75" fill="white"/>
</clipPath>
</defs>
</svg>
