<svg preserveAspectRatio="none" width="100%" height="100%" overflow="visible" style="display: block;" viewBox="0 0 101.034 73.1058" fill="none" xmlns="http://www.w3.org/2000/svg">
<g id="Group 340">
<path id="Vector" d="M101.034 68.5439H0V73.1057H101.034V68.5439Z" fill="var(--fill-0, #192643)"/>
<path id="Vector_2" d="M55.2031 35.8432V68.5438H66.3614V56.3361H73.9345V68.5438H76.059V56.3361H83.6321V68.5438H94.7904V35.8432H55.2027H55.2031ZM86.7436 52.1935H63.2498V44.4507H86.7436V52.1935Z" fill="var(--fill-0, #192643)"/>
<path id="Vector_3" d="M2.518 24.2752L1.83931 12.7686L97.6502 0L98.3288 11.507L2.518 24.2752Z" fill="var(--fill-0, #192643)"/>
<path id="Vector_4" d="M6.24299 26.7405V68.5437H13.6912V51.3H22.9176V68.5437H26.6955V51.3H34.2686V68.5437H38.0464V51.3H47.2728V68.5437H52.5792V33.2238H94.7908V15.0457L6.24299 26.7405ZM23.1619 41.53C23.1619 42.8374 22.1005 43.8972 20.7911 43.8972H16.189C14.8796 43.8972 13.8181 42.8374 13.8181 41.53V36.9351C13.8181 35.6277 14.8796 34.5679 16.189 34.5679H20.7911C22.1005 34.5679 23.1619 35.6277 23.1619 36.9351V41.53ZM35.2176 41.53C35.2176 42.8374 34.1562 43.8972 32.8467 43.8972H28.2447C26.9352 43.8972 25.8738 42.8374 25.8738 41.53V36.9351C25.8738 35.6277 26.9352 34.5679 28.2447 34.5679H32.8467C34.1562 34.5679 35.2176 35.6277 35.2176 36.9351V41.53ZM47.2733 41.53C47.2733 42.8374 46.2118 43.8972 44.9024 43.8972H40.3003C38.9909 43.8972 37.9295 42.8374 37.9295 41.53V36.9351C37.9295 35.6277 38.9909 34.5679 40.3003 34.5679H44.9024C46.2118 34.5679 47.2733 35.6277 47.2733 36.9351V41.53Z" fill="var(--fill-0, #192643)"/>
</g>
</svg>
