<svg preserveAspectRatio="none" width="100%" height="100%" overflow="visible" style="display: block;" viewBox="0 0 111 71.9926" fill="none" xmlns="http://www.w3.org/2000/svg">
<g id="Group 341">
<path id="Vector" d="M55.076 2.50064V69.4926H2.5V25.4883L55.076 2.50064Z" fill="var(--fill-0, #192643)" stroke="var(--stroke-0, #192643)" stroke-width="5" stroke-linecap="round" stroke-linejoin="round"/>
<path id="Vector_2" d="M108.5 69.4926V25.4883L55.076 2.50064" stroke="var(--stroke-0, #192643)" stroke-width="5" stroke-linecap="round" stroke-linejoin="round"/>
<g id="Vector_3">
<mask id="path-3-inside-1_0_139" fill="white">
<path d="M97.476 69.4926V39.9706L66.1 24.5486V69.4926"/>
</mask>
<path d="M97.476 69.4926V39.9706L66.1 24.5486V69.4926" fill="var(--fill-0, #192643)"/>
<path d="M97.476 39.9706H102.476V36.8568L99.6816 35.4833L97.476 39.9706ZM66.1 24.5486L68.3056 20.0614L61.1 16.5197V24.5486H66.1ZM97.476 69.4926H102.476V39.9706H97.476H92.476V69.4926H97.476ZM97.476 39.9706L99.6816 35.4833L68.3056 20.0614L66.1 24.5486L63.8944 29.0359L95.2704 44.4578L97.476 39.9706ZM66.1 24.5486H61.1V69.4926H66.1H71.1V24.5486H66.1Z" fill="var(--stroke-0, #192643)" mask="url(#path-3-inside-1_0_139)"/>
</g>
</g>
</svg>
