<svg preserveAspectRatio="none" width="100%" height="100%" overflow="visible" style="display: block;" viewBox="0 0 120 82.8272" fill="none" xmlns="http://www.w3.org/2000/svg">
<g id="Group 339">
<path id="Vector" d="M74.0189 43.8779C73.7504 43.8032 73.3763 43.5301 73.3346 43.3705C73.2164 42.913 73.5444 42.5467 73.7869 42.4601C74.7575 42.1139 75.7594 41.8259 76.777 41.6408C77.317 41.5423 77.6509 41.5617 78.0712 41.4543C78.8812 41.2476 79.5097 40.8312 79.4814 39.8671C79.4539 38.9396 78.9585 38.2248 78.0898 38.1076C76.7628 37.9271 75.4121 37.8241 74.0725 37.845C73.6753 37.839 73.2766 37.8427 72.8802 37.8584C71.6812 37.9054 71.1694 38.6068 70.8846 39.8044C70.7618 40.3186 70.5528 40.8133 70.3513 41.3095C69.8775 40.2536 69.4141 39.1933 68.9135 38.1502C67.2593 34.6901 65.3871 31.3718 62.673 28.6087C60.6967 26.5978 58.4482 25.5382 55.4834 25.5747C55.3659 25.5762 55.2498 25.577 55.1323 25.5785C55.0215 25.577 54.9121 25.574 54.7998 25.5747C49.6676 25.6374 44.5331 25.6606 39.3994 25.6606C34.2657 25.6606 29.1312 25.6374 23.999 25.5747C21.0342 25.5382 18.7857 26.5978 16.8094 28.6087C14.0952 31.3718 12.2223 34.6901 10.5689 38.1502C9.99242 39.353 9.46506 40.5782 8.9139 41.7938C8.77928 41.7878 8.76961 41.7878 8.63498 41.7833C8.38878 41.1252 8.07713 40.482 7.91498 39.8044C7.6301 38.6068 7.11911 37.9054 5.91935 37.8584C5.12646 37.8278 4.32836 37.8412 3.53175 37.8927C2.81547 37.9375 2.10142 38.0114 1.39257 38.1076C0.52381 38.2255 0.027694 38.9396 0.000917066 39.8671C-0.0273474 40.8312 0.601166 41.2476 1.41117 41.4543C1.83142 41.5617 2.16538 41.5423 2.70538 41.6408C2.98208 41.6908 3.25803 41.749 3.53249 41.8147C4.26588 41.987 4.9896 42.2079 5.69547 42.4601C5.93795 42.5467 6.26597 42.9138 6.1477 43.3705C6.10531 43.5301 5.73192 43.8032 5.4634 43.8779C4.68762 44.0928 4.0234 44.4547 3.53249 45.0277C3.37183 45.2143 3.22976 45.4232 3.10778 45.6575C1.23637 49.2571 -0.126273 52.9514 0.0128179 57.1547C0.186868 62.428 -0.00875237 67.7117 0.0938924 72.9887C0.141496 75.4496 0.459843 77.9113 0.768521 80.3587C0.978274 82.0153 1.9348 82.7801 3.53175 82.8152C3.56968 82.8167 3.60687 82.8167 3.64481 82.8167C5.39795 82.8189 7.15184 82.8256 8.90572 82.8271C11.7314 82.8286 11.8043 82.8271 12.4685 80.505C12.5028 80.3826 12.5913 80.2819 12.708 80.2297C13.5716 79.8401 14.363 79.6491 14.7892 79.1462C15.1604 78.7074 15.3999 78.5015 15.951 78.503C23.6561 78.5097 31.3626 78.5134 39.0684 78.5157H39.752C47.4563 78.5134 55.1606 78.5097 62.8649 78.503C63.4049 78.5067 63.6429 78.7119 64.0111 79.1462C64.438 79.6491 65.2287 79.8401 66.0922 80.2297C66.2083 80.2819 66.2975 80.3826 66.3317 80.505C66.996 82.8271 67.0689 82.8279 69.8946 82.8271H70.5781C72.332 82.8256 74.0866 82.8189 75.839 82.8167C77.5029 82.8152 78.5011 82.0548 78.7153 80.3587C79.024 77.9113 79.3416 75.4496 79.3899 72.9887C79.4926 67.7117 79.2962 62.428 79.471 57.1547C79.6101 52.9522 78.2475 49.2578 76.3775 45.6575C75.8844 44.7091 75.0521 44.1629 74.0219 43.8786L74.0189 43.8779ZM11.2204 43.0048L16.2188 33.3641C18.2122 29.9563 22.0562 27.8342 26.2363 27.8342H53.2445C57.424 27.8342 61.2687 29.9563 63.2621 33.3641L68.2604 43.0048C68.4285 43.3294 68.1942 43.7167 67.8298 43.7167H11.6511C11.2866 43.7167 11.0523 43.3287 11.2204 43.0048ZM22.9658 56.3794C21.8077 56.5286 19.2966 56.7152 19.2966 56.7152C17.5145 56.7361 16.1072 57.6531 15.6602 58.0389C15.5613 58.124 15.4274 58.1531 15.3024 58.1173L7.63084 55.9086C7.1325 55.7653 6.72192 55.3997 6.5382 54.9124C6.06217 53.6454 6.63341 51.8837 6.94952 51.0808C7.03803 50.8569 7.29018 50.745 7.51407 50.8323C9.99911 51.8046 20.2941 53.326 21.8062 53.5462C21.9245 53.5633 22.0264 53.6342 22.0852 53.7379L23.2537 55.8026C23.3898 56.0429 23.2388 56.3436 22.9658 56.3787V56.3794ZM52.8622 74.058H26.6186C25.7172 74.058 25.2575 72.9715 25.8838 72.3209L29.1885 68.8862C29.3811 68.6862 29.6467 68.5728 29.9234 68.5728H49.5575C49.835 68.5728 50.1005 68.6855 50.2924 68.8862L53.5971 72.3209C54.2234 72.9715 53.7637 74.058 52.8622 74.058ZM72.9427 54.9132C72.7597 55.4004 72.3491 55.7653 71.85 55.9093L64.1784 58.118C64.0535 58.1538 63.9196 58.1247 63.8207 58.0397C63.3736 57.6539 62.0296 56.7368 60.1842 56.7159C60.1842 56.7159 57.6731 56.5294 56.515 56.3802C56.2421 56.3451 56.0918 56.0444 56.2272 55.8041L57.3957 53.7394C57.4545 53.635 57.5571 53.5648 57.6746 53.5476C59.1868 53.3275 69.4818 51.8068 71.9668 50.8338C72.1907 50.7465 72.4428 50.8577 72.5313 51.0823C72.8475 51.8859 73.4187 53.6469 72.9427 54.9139V54.9132Z" fill="var(--fill-0, #192643)"/>
<path id="Vector_2" d="M108.053 9.01312C107.645 8.93626 106.824 8.89746 105.592 8.89746H103.939V13.72H105.811C107.159 13.72 108.061 13.6312 108.515 13.4537C108.97 13.2761 109.326 12.9977 109.584 12.6187C109.842 12.2404 109.971 11.7994 109.971 11.2972C109.971 10.6793 109.79 10.169 109.428 9.76676C109.065 9.36532 108.607 9.11385 108.052 9.01312H108.053Z" fill="var(--fill-0, #192643)"/>
<path id="Vector_3" d="M116.875 0H94.1789C92.4533 0 91.0542 1.40357 91.0542 3.13471V25.9037C91.0542 27.6349 92.4533 29.0385 94.1789 29.0385H104.047V82.8263H107.007V29.0385H116.875C118.601 29.0385 120 27.6349 120 25.9037V3.13471C120 1.40357 118.601 0 116.875 0ZM112.929 13.882C112.552 14.5931 112.073 15.1512 111.491 15.5572C110.909 15.9631 110.318 16.2317 109.717 16.363C108.9 16.525 107.718 16.6063 106.17 16.6063H103.94V23.0168H100.519V6.02244H106.008C108.087 6.02244 109.443 6.10751 110.075 6.27764C111.046 6.53283 111.859 7.08724 112.514 7.94088C113.168 8.79526 113.496 9.89812 113.496 11.2502C113.496 12.2934 113.307 13.1709 112.93 13.882H112.929Z" fill="var(--fill-0, #192643)"/>
</g>
</svg>
