<svg preserveAspectRatio="none" width="100%" height="100%" overflow="visible" style="display: block;" viewBox="0 0 70 80" fill="none" xmlns="http://www.w3.org/2000/svg">
<path id="Vector" fill-rule="evenodd" clip-rule="evenodd" d="M0 40.1677L7.33274 40.1784V74.9307C7.33274 77.8395 9.35063 79.8765 12.2826 79.8765H44.1234C47.2165 79.8765 58.2004 80.3853 60.1324 79.3374C62.1449 78.2469 62.6673 76.7044 62.6619 73.6729V40.1784L70 40.1731C69.6601 39.4704 53.3274 20.904 52.6118 20.0483C51.8766 19.173 51.1252 18.4649 50.4168 17.5825L39.4687 5.04187C38.7442 4.27332 38.0286 3.30017 37.3131 2.52627C36.5009 1.65453 35.8068 0.636906 35 0C34.2791 0.560406 33.4991 1.68122 32.7746 2.4391C32.0394 3.20232 31.3542 4.13989 30.619 4.94936L10.8837 27.5293C10.1538 28.4366 9.43828 29.1998 8.62254 30.1071L0 40.1677ZM31.7281 65.4323H28.0107L38.8068 48.3176H42.5242L31.7281 65.4323ZM41.6118 65.6191C40.3041 65.6191 39.1878 65.1547 38.2648 64.2243C37.347 63.292 36.8855 62.1766 36.8855 60.8725C36.8855 59.5685 37.347 58.437 38.2648 57.5101C39.1878 56.5885 40.3041 56.1242 41.6118 56.1242C42.9195 56.1242 44.0197 56.5885 44.9481 57.5101C45.8766 58.437 46.3381 59.5578 46.3381 60.8725C46.3381 62.1872 45.8766 63.292 44.9481 64.2243C44.0197 65.1565 42.9088 65.6191 41.6118 65.6191ZM40.4258 62.0805C40.7549 62.4167 41.1503 62.584 41.6118 62.584C42.0733 62.584 42.4687 62.4167 42.7889 62.0805C43.1091 61.7443 43.2701 61.3422 43.2701 60.8725C43.2701 60.4028 43.1073 60.0061 42.7889 59.6699C42.4687 59.3336 42.0787 59.1611 41.6118 59.1611C41.1449 59.1611 40.7549 59.3336 40.4258 59.6699C40.0966 60.0061 39.9338 60.4082 39.9338 60.8725C39.9338 61.3368 40.0966 61.7443 40.4258 62.0805ZM28.9195 57.6239C27.6118 57.6239 26.4955 57.156 25.5725 56.2238C24.6547 55.2916 24.1932 54.1761 24.1932 52.8774C24.1932 51.5787 24.6547 50.4383 25.5725 49.515C26.4955 48.5881 27.6118 48.1291 28.9195 48.1291C30.2272 48.1291 31.3274 48.5881 32.2558 49.515C33.1843 50.4365 33.6458 51.5573 33.6458 52.8774C33.6458 54.1975 33.1843 55.2916 32.2558 56.2238C31.3274 57.156 30.2165 57.6239 28.9195 57.6239ZM28.9195 54.5871C29.3864 54.5871 29.7764 54.4145 30.0966 54.0783C30.4168 53.742 30.5778 53.3399 30.5778 52.8756C30.5778 52.4113 30.415 52.0039 30.0966 51.6676C29.7764 51.3314 29.3864 51.1642 28.9195 51.1642C28.4526 51.1642 28.0429 51.3278 27.7227 51.6587C27.4025 51.9843 27.2415 52.3917 27.2415 52.8756C27.2415 53.3595 27.4043 53.7616 27.7227 54.0925C28.0429 54.4181 28.4437 54.5871 28.9195 54.5871ZM62.1288 27.9989C62.2451 22.9161 62.2809 17.2872 62.1395 12.2133C62.0018 7.32797 56.3685 5.16819 53.1646 8.54663C51.3739 10.4253 51.6995 11.9535 51.6691 14.9246C51.6583 15.8355 51.542 15.9938 51.9928 16.54C52.3077 16.9171 52.5868 17.2231 52.9052 17.6003L62.1288 28.0007V27.9989ZM33.2397 40.1784C24.5886 41.0697 17.3417 48.8674 18.4436 58.7234C19.4079 67.3519 27.1199 74.5802 36.9374 73.4434C45.4615 72.4596 52.6673 64.7847 51.551 54.8682C50.5868 46.3269 42.9499 39.175 33.2397 40.1784Z" fill="var(--fill-0, black)"/>
</svg>
