<svg preserveAspectRatio="none" width="100%" height="100%" overflow="visible" style="display: block;" viewBox="0 0 70 70" fill="none" xmlns="http://www.w3.org/2000/svg">
<path id="Vector" d="M70 35C70 41.9223 67.9473 48.6892 64.1014 54.4449C60.2556 60.2007 54.7893 64.6867 48.3939 67.3358C41.9985 69.9848 34.9612 70.6779 28.1719 69.3275C21.3825 67.977 15.1461 64.6436 10.2513 59.7487C5.35644 54.8539 2.02301 48.6175 0.672531 41.8281C-0.677952 35.0388 0.0151649 28.0015 2.66423 21.6061C5.3133 15.2107 9.79934 9.74441 15.5551 5.89856C21.3108 2.05271 28.0777 0 35 0C39.5963 0 44.1475 0.905302 48.3939 2.66422C52.6403 4.42313 56.4987 7.00121 59.7487 10.2513C62.9988 13.5013 65.5769 17.3597 67.3358 21.6061C69.0947 25.8525 70 30.4037 70 35ZM57.3873 49.8895C57.385 49.5197 57.237 49.1657 56.9755 48.9042C56.7141 48.6427 56.3601 48.4948 55.9903 48.4925H54.5137V46.7507C54.5125 46.3801 54.3651 46.025 54.1035 45.7625C53.8419 45.5001 53.4873 45.3516 53.1167 45.3492H51.7993V33.5455H52.7454C53.187 33.5141 53.6004 33.3164 53.9021 32.9924C54.2039 32.6684 54.3717 32.2421 54.3717 31.7993C54.3717 31.3565 54.2039 30.9302 53.9021 30.6061C53.6004 30.2821 53.187 30.0845 52.7454 30.053H17.1264C16.6848 30.0845 16.2714 30.2821 15.9697 30.6061C15.6679 30.9302 15.5001 31.3565 15.5001 31.7993C15.5001 32.2421 15.6679 32.6684 15.9697 32.9924C16.2714 33.3164 16.6848 33.5141 17.1264 33.5455H18.1256V45.3492H16.6534C16.2821 45.3504 15.9263 45.4984 15.6638 45.761C15.4012 46.0236 15.2532 46.3793 15.252 46.7507V48.4925H13.7799C13.4093 48.4936 13.0542 48.641 12.7917 48.9027C12.5293 49.1643 12.3808 49.5189 12.3784 49.8895V51.6313H57.3917L57.3873 49.8895ZM18.13 27.1485H51.7993C51.7993 22.6831 50.0254 18.4006 46.8679 15.2431C43.7104 12.0855 39.4278 10.3117 34.9624 10.3117C30.497 10.3117 26.2145 12.0855 23.057 15.2431C19.8994 18.4006 18.13 22.6831 18.13 27.1485ZM25.4951 35.4023V45.3492H22.0027V35.4023C22.0252 34.9538 22.2193 34.5311 22.5447 34.2216C22.8701 33.9121 23.302 33.7396 23.7511 33.7396C24.2002 33.7396 24.6321 33.9121 24.9575 34.2216C25.283 34.5311 25.4726 34.9538 25.4951 35.4023ZM32.9487 35.4288V45.3492H29.4518V35.4288C29.4744 34.9803 29.6684 34.5576 29.9939 34.2481C30.3193 33.9387 30.7512 33.7661 31.2003 33.7661C31.6494 33.7661 32.0813 33.9387 32.4067 34.2481C32.7321 34.5576 32.9262 34.9803 32.9487 35.4288ZM40.4023 35.4598V45.3492H36.9054V35.4598C36.928 35.0112 37.122 34.5886 37.4474 34.2791C37.7729 33.9696 38.2048 33.797 38.6539 33.797C39.1029 33.797 39.5348 33.9696 39.8603 34.2791C40.1857 34.5886 40.3797 35.0112 40.4023 35.4598ZM47.8559 35.4863V45.3492H44.3546V35.4907C44.3546 35.0264 44.539 34.5811 44.8673 34.2528C45.1956 33.9245 45.6409 33.74 46.1052 33.74C46.5695 33.74 47.0148 33.9245 47.3431 34.2528C47.6714 34.5811 47.8559 35.022 47.8559 35.4863Z" fill="var(--fill-0, black)"/>
</svg>
