<svg preserveAspectRatio="none" width="100%" height="100%" overflow="visible" style="display: block;" viewBox="0 0 960.32 222.461" fill="none" xmlns="http://www.w3.org/2000/svg">
<g id="Group 335">
<path id="Vector" d="M924.42 103.966H960.32V222.461H924.42V103.966ZM959.428 104.849H925.303V221.569H959.428V104.849Z" fill="var(--fill-0, #277691)"/>
<path id="Vector_2" d="M953.359 115.764H931.372V116.647H953.359V115.764Z" fill="var(--fill-0, #277691)"/>
<path id="Vector_3" d="M953.359 129.19H931.372V130.073H953.359V129.19Z" fill="var(--fill-0, #277691)"/>
<path id="Vector_4" d="M953.359 142.625H931.372V143.507H953.359V142.625Z" fill="var(--fill-0, #277691)"/>
<path id="Vector_5" d="M953.359 156.05H931.372V156.933H953.359V156.05Z" fill="var(--fill-0, #277691)"/>
<path id="Vector_6" d="M953.359 169.476H931.372V170.358H953.359V169.476Z" fill="var(--fill-0, #277691)"/>
<path id="Vector_7" d="M953.359 182.911H931.372V183.794H953.359V182.911Z" fill="var(--fill-0, #277691)"/>
<path id="Vector_8" d="M953.359 196.336H931.372V197.219H953.359V196.336Z" fill="var(--fill-0, #277691)"/>
<path id="Vector_9" d="M953.359 209.771H931.372V210.654H953.359V209.771Z" fill="var(--fill-0, #277691)"/>
<path id="Vector_10" d="M928.485 65.096H956.237V104.481H928.485V65.096ZM955.354 65.988H929.367V103.598H955.354V65.988Z" fill="var(--fill-0, #277691)"/>
<path id="Vector_11" d="M950.306 73.4458H934.425V74.3285H950.306V73.4458Z" fill="var(--fill-0, #277691)"/>
<path id="Vector_12" d="M950.306 84.3517H934.425V85.2344H950.306V84.3517Z" fill="var(--fill-0, #277691)"/>
<path id="Vector_13" d="M950.306 95.2576H934.425V96.1404H950.306V95.2576Z" fill="var(--fill-0, #277691)"/>
<path id="Vector_14" d="M931.335 43.9366H953.396V65.9878H931.335V43.9366ZM952.504 44.8286H932.218V65.105H952.504V44.8286Z" fill="var(--fill-0, #277691)"/>
<path id="Vector_15" d="M934.526 21.5545H950.205V44.8195H934.526V21.5545ZM949.322 22.4465H935.418V43.946H949.322V22.4465Z" fill="var(--fill-0, #277691)"/>
<path id="Vector_16" d="M942.802 0H941.92V21.996H942.802V0Z" fill="var(--fill-0, #277691)"/>
<path id="Vector_17" d="M859.379 103.966H895.279V222.461H859.379V103.966ZM894.396 104.849H860.271V221.569H894.396V104.849Z" fill="var(--fill-0, #277691)"/>
<path id="Vector_18" d="M888.327 115.764H866.341V116.647H888.327V115.764Z" fill="var(--fill-0, #277691)"/>
<path id="Vector_19" d="M888.327 129.19H866.341V130.073H888.327V129.19Z" fill="var(--fill-0, #277691)"/>
<path id="Vector_20" d="M888.327 142.625H866.341V143.507H888.327V142.625Z" fill="var(--fill-0, #277691)"/>
<path id="Vector_21" d="M888.327 156.05H866.341V156.933H888.327V156.05Z" fill="var(--fill-0, #277691)"/>
<path id="Vector_22" d="M888.327 169.476H866.341V170.358H888.327V169.476Z" fill="var(--fill-0, #277691)"/>
<path id="Vector_23" d="M888.327 182.911H866.341V183.794H888.327V182.911Z" fill="var(--fill-0, #277691)"/>
<path id="Vector_24" d="M888.327 196.336H866.341V197.219H888.327V196.336Z" fill="var(--fill-0, #277691)"/>
<path id="Vector_25" d="M888.327 209.771H866.341V210.654H888.327V209.771Z" fill="var(--fill-0, #277691)"/>
<path id="Vector_26" d="M863.453 65.096H891.205V104.481H863.453V65.096ZM890.323 65.988H864.336V103.598H890.323V65.988Z" fill="var(--fill-0, #277691)"/>
<path id="Vector_27" d="M885.274 73.4458H869.393V74.3285H885.274V73.4458Z" fill="var(--fill-0, #277691)"/>
<path id="Vector_28" d="M885.274 84.3517H869.393V85.2344H885.274V84.3517Z" fill="var(--fill-0, #277691)"/>
<path id="Vector_29" d="M885.274 95.2576H869.393V96.1404H885.274V95.2576Z" fill="var(--fill-0, #277691)"/>
<path id="Vector_30" d="M866.304 43.9366H888.364V65.9878H866.304V43.9366ZM887.472 44.8286H867.187V65.105H887.472V44.8286Z" fill="var(--fill-0, #277691)"/>
<path id="Vector_31" d="M869.495 21.5545H885.173V44.8195H869.495V21.5545ZM884.281 22.4465H870.377V43.946H884.281V22.4465Z" fill="var(--fill-0, #277691)"/>
<path id="Vector_32" d="M877.771 0H876.888V21.996H877.771V0Z" fill="var(--fill-0, #277691)"/>
<path id="Vector_33" d="M894.396 119.626H925.303V132.721H894.396V119.626ZM924.42 120.518H895.279V131.838H924.42V120.518Z" fill="var(--fill-0, #277691)"/>
<path id="Vector_34" d="M894.396 149.944H925.303V163.039H894.396V149.944ZM924.42 150.836H895.279V162.156H924.42V150.836Z" fill="var(--fill-0, #277691)"/>
<path id="Vector_35" d="M782.467 142.625H841.567V222.461H782.467V142.625ZM840.685 143.507H783.35V221.569H840.685V143.507Z" fill="var(--fill-0, #277691)"/>
<path id="Vector_36" d="M815.755 153.549H831.424V169.209H815.755V153.549ZM830.532 154.441H816.638V168.326H830.532V154.441Z" fill="var(--fill-0, #277691)"/>
<path id="Vector_37" d="M792.628 153.549H808.297V169.209H792.628V153.549ZM807.406 154.441H793.511V168.326H807.406V154.441Z" fill="var(--fill-0, #277691)"/>
<path id="Vector_38" d="M815.755 174.708H831.424V190.369H815.755V174.708ZM830.532 175.591H816.638V189.477H830.532V175.591Z" fill="var(--fill-0, #277691)"/>
<path id="Vector_39" d="M792.628 174.708H808.297V190.369H792.628V174.708ZM807.406 175.591H793.511V189.477H807.406V175.591Z" fill="var(--fill-0, #277691)"/>
<path id="Vector_40" d="M815.755 195.867H831.424V211.528H815.755V195.867ZM830.532 196.75H816.638V210.636H830.532V196.75Z" fill="var(--fill-0, #277691)"/>
<path id="Vector_41" d="M792.628 195.867H808.297V211.528H792.628V195.867ZM807.406 196.75H793.511V210.636H807.406V196.75Z" fill="var(--fill-0, #277691)"/>
<path id="Vector_42" d="M154.726 142.625H213.826V222.461H154.726V142.625ZM212.944 143.507H155.609V221.569H212.944V143.507Z" fill="var(--fill-0, #277691)"/>
<path id="Vector_43" d="M188.005 153.549H203.674V169.209H188.005V153.549ZM202.792 154.441H188.897V168.326H202.792V154.441Z" fill="var(--fill-0, #277691)"/>
<path id="Vector_44" d="M164.878 153.549H180.547V169.209H164.878V153.549ZM179.665 154.441H165.77V168.326H179.665V154.441Z" fill="var(--fill-0, #277691)"/>
<path id="Vector_45" d="M188.005 174.708H203.674V190.369H188.005V174.708ZM202.792 175.591H188.897V189.477H202.792V175.591Z" fill="var(--fill-0, #277691)"/>
<path id="Vector_46" d="M164.878 174.708H180.547V190.369H164.878V174.708ZM179.665 175.591H165.77V189.477H179.665V175.591Z" fill="var(--fill-0, #277691)"/>
<path id="Vector_47" d="M188.005 195.867H203.674V211.528H188.005V195.867ZM202.792 196.75H188.897V210.636H202.792V196.75Z" fill="var(--fill-0, #277691)"/>
<path id="Vector_48" d="M164.878 195.867H180.547V211.528H164.878V195.867ZM179.665 196.75H165.77V210.636H179.665V196.75Z" fill="var(--fill-0, #277691)"/>
<path id="Vector_49" d="M709.187 115.764H767.883V222.452H709.187V115.764ZM767 116.647H710.079V221.569H767V116.647Z" fill="var(--fill-0, #277691)"/>
<path id="Vector_50" d="M757.059 130.799H720.01V131.682H757.059V130.799Z" fill="var(--fill-0, #277691)"/>
<path id="Vector_51" d="M757.059 145.944H720.01V146.827H757.059V145.944Z" fill="var(--fill-0, #277691)"/>
<path id="Vector_52" d="M757.059 161.09H720.01V161.972H757.059V161.09Z" fill="var(--fill-0, #277691)"/>
<path id="Vector_53" d="M757.059 176.244H720.01V177.127H757.059V176.244Z" fill="var(--fill-0, #277691)"/>
<path id="Vector_54" d="M757.059 191.389H720.01V192.272H757.059V191.389Z" fill="var(--fill-0, #277691)"/>
<path id="Vector_55" d="M757.059 206.534H720.01V207.417H757.059V206.534Z" fill="var(--fill-0, #277691)"/>
<path id="Vector_56" d="M719.569 100.996H757.501V116.647H719.569V100.996ZM756.618 101.888H720.461V115.764H756.618V101.888Z" fill="var(--fill-0, #277691)"/>
<path id="Vector_57" d="M231.933 115.764H290.628V222.452H231.933V115.764ZM289.736 116.647H232.815V221.569H289.736V116.647Z" fill="var(--fill-0, #277691)"/>
<path id="Vector_58" d="M279.805 130.799H242.756V131.682H279.805V130.799Z" fill="var(--fill-0, #277691)"/>
<path id="Vector_59" d="M279.805 145.944H242.756V146.827H279.805V145.944Z" fill="var(--fill-0, #277691)"/>
<path id="Vector_60" d="M279.805 161.09H242.756V161.972H279.805V161.09Z" fill="var(--fill-0, #277691)"/>
<path id="Vector_61" d="M279.805 176.244H242.756V177.127H279.805V176.244Z" fill="var(--fill-0, #277691)"/>
<path id="Vector_62" d="M279.805 191.389H242.756V192.272H279.805V191.389Z" fill="var(--fill-0, #277691)"/>
<path id="Vector_63" d="M279.805 206.534H242.756V207.417H279.805V206.534Z" fill="var(--fill-0, #277691)"/>
<path id="Vector_64" d="M242.315 100.996H280.247V116.647H242.315V100.996ZM279.355 101.888H243.197V115.764H279.355V101.888Z" fill="var(--fill-0, #277691)"/>
<path id="Vector_65" d="M530.534 115.764H589.23V222.452H530.534V115.764ZM588.347 116.647H531.426V221.569H588.347V116.647Z" fill="var(--fill-0, #277691)"/>
<path id="Vector_66" d="M578.406 130.799H541.357V131.682H578.406V130.799Z" fill="var(--fill-0, #277691)"/>
<path id="Vector_67" d="M578.406 145.944H541.357V146.827H578.406V145.944Z" fill="var(--fill-0, #277691)"/>
<path id="Vector_68" d="M578.406 161.09H541.357V161.972H578.406V161.09Z" fill="var(--fill-0, #277691)"/>
<path id="Vector_69" d="M578.406 176.244H541.357V177.127H578.406V176.244Z" fill="var(--fill-0, #277691)"/>
<path id="Vector_70" d="M578.406 191.389H541.357V192.272H578.406V191.389Z" fill="var(--fill-0, #277691)"/>
<path id="Vector_71" d="M578.406 206.534H541.357V207.417H578.406V206.534Z" fill="var(--fill-0, #277691)"/>
<path id="Vector_72" d="M540.916 100.996H578.848V116.647H540.916V100.996ZM577.965 101.888H541.808V115.764H577.965V101.888Z" fill="var(--fill-0, #277691)"/>
<path id="Vector_73" d="M608.154 43.9366H690.262V222.452H608.154V43.9366ZM689.379 44.8286H609.046V221.569H689.379V44.8286Z" fill="var(--fill-0, #277691)"/>
<path id="Vector_74" d="M649.654 44.378H648.771V222.01H649.654V44.378Z" fill="var(--fill-0, #277691)"/>
<path id="Vector_75" d="M679.899 62.6593H657.912V63.5421H679.899V62.6593Z" fill="var(--fill-0, #277691)"/>
<path id="Vector_76" d="M679.899 76.085H657.912V76.9678H679.899V76.085Z" fill="var(--fill-0, #277691)"/>
<path id="Vector_77" d="M679.899 89.5197H657.912V90.4025H679.899V89.5197Z" fill="var(--fill-0, #277691)"/>
<path id="Vector_78" d="M679.899 102.945H657.912V103.828H679.899V102.945Z" fill="var(--fill-0, #277691)"/>
<path id="Vector_79" d="M679.899 116.371H657.912V117.254H679.899V116.371Z" fill="var(--fill-0, #277691)"/>
<path id="Vector_80" d="M638.987 149.043H617V149.926H638.987V149.043Z" fill="var(--fill-0, #277691)"/>
<path id="Vector_81" d="M638.987 162.469H617V163.352H638.987V162.469Z" fill="var(--fill-0, #277691)"/>
<path id="Vector_82" d="M638.987 175.904H617V176.786H638.987V175.904Z" fill="var(--fill-0, #277691)"/>
<path id="Vector_83" d="M638.987 189.329H617V190.212H638.987V189.329Z" fill="var(--fill-0, #277691)"/>
<path id="Vector_84" d="M638.987 202.764H617V203.647H638.987V202.764Z" fill="var(--fill-0, #277691)"/>
<path id="Vector_85" d="M616.55 32.7456H680.331V44.8195H616.55V32.7456ZM679.457 33.6376H617.442V43.9459H679.457V33.6376Z" fill="var(--fill-0, #277691)"/>
<path id="Vector_86" d="M383.33 161.09H514.901V222.452H383.33V161.09ZM514.009 161.982H384.212V221.569H514.009V161.982Z" fill="var(--fill-0, #277691)"/>
<path id="Vector_87" d="M383.33 145.944H449.557V161.972H383.33V145.944ZM448.674 146.836H384.222V161.099H448.674V146.836Z" fill="var(--fill-0, #277691)"/>
<path id="Vector_88" d="M449.557 161.54H448.674V222.01H449.557V161.54Z" fill="var(--fill-0, #277691)"/>
<path id="Vector_89" d="M502.036 210.966H461.125V211.849H502.036V210.966Z" fill="var(--fill-0, #277691)"/>
<path id="Vector_90" d="M502.036 202.764H461.125V203.647H502.036V202.764Z" fill="var(--fill-0, #277691)"/>
<path id="Vector_91" d="M436.895 178.874H395.983V179.757H436.895V178.874Z" fill="var(--fill-0, #277691)"/>
<path id="Vector_92" d="M436.895 170.671H395.983V171.554H436.895V170.671Z" fill="var(--fill-0, #277691)"/>
<path id="Vector_93" d="M0 161.09H131.571V222.452H0V161.09ZM130.679 161.982H0.882782V221.569H130.679V161.982Z" fill="var(--fill-0, #277691)"/>
<path id="Vector_94" d="M0 145.944H66.2271V161.972H0V145.944ZM65.3443 146.836H0.882782V161.099H65.3351V146.836H65.3443Z" fill="var(--fill-0, #277691)"/>
<path id="Vector_95" d="M66.2271 161.54H65.3443V222.01H66.2271V161.54Z" fill="var(--fill-0, #277691)"/>
<path id="Vector_96" d="M118.707 210.966H77.7953V211.849H118.707V210.966Z" fill="var(--fill-0, #277691)"/>
<path id="Vector_97" d="M118.707 202.764H77.7953V203.647H118.707V202.764Z" fill="var(--fill-0, #277691)"/>
<path id="Vector_98" d="M53.5647 178.874H12.6532V179.757H53.5647V178.874Z" fill="var(--fill-0, #277691)"/>
<path id="Vector_99" d="M53.5647 170.671H12.6532V171.554H53.5647V170.671Z" fill="var(--fill-0, #277691)"/>
<path id="Vector_100" d="M308.588 142.625H367.688V222.461H308.588V142.625ZM366.805 143.507H309.47V221.569H366.805V143.507Z" fill="var(--fill-0, #277691)"/>
<path id="Vector_101" d="M341.867 153.549H357.536V169.209H341.867V153.549ZM356.653 154.441H342.759V168.326H356.653V154.441Z" fill="var(--fill-0, #277691)"/>
<path id="Vector_102" d="M318.74 153.549H334.409V169.209H318.74V153.549ZM333.526 154.441H319.632V168.326H333.526V154.441Z" fill="var(--fill-0, #277691)"/>
<path id="Vector_103" d="M341.867 174.708H357.536V190.369H341.867V174.708ZM356.653 175.591H342.759V189.477H356.653V175.591Z" fill="var(--fill-0, #277691)"/>
<path id="Vector_104" d="M318.74 174.708H334.409V190.369H318.74V174.708ZM333.526 175.591H319.632V189.477H333.526V175.591Z" fill="var(--fill-0, #277691)"/>
<path id="Vector_105" d="M341.867 195.867H357.536V211.528H341.867V195.867ZM356.653 196.75H342.759V210.636H356.653V196.75Z" fill="var(--fill-0, #277691)"/>
<path id="Vector_106" d="M318.74 195.867H334.409V211.528H318.74V195.867ZM333.526 196.75H319.632V210.636H333.526V196.75Z" fill="var(--fill-0, #277691)"/>
<path id="Vector_107" d="M318.74 95.3959H357.536V143.517H318.74V95.3959ZM356.653 96.2787H319.632V142.625H356.653V96.2787Z" fill="var(--fill-0, #277691)"/>
<path id="Vector_108" d="M326.133 62.6593H350.143V96.2786H326.133V62.6593ZM349.26 63.5421H327.016V95.3866H349.26V63.5421Z" fill="var(--fill-0, #277691)"/>
<path id="Vector_109" d="M338.584 33.187H337.701V63.1004H338.584V33.187Z" fill="var(--fill-0, #277691)"/>
</g>
</svg>
