<svg preserveAspectRatio="none" width="100%" height="100%" overflow="visible" style="display: block;" viewBox="0 0 148 149.44" fill="none" xmlns="http://www.w3.org/2000/svg">
<g id="Group 170">
<path id="Vector" fill-rule="evenodd" clip-rule="evenodd" d="M104.353 35.4723H129.272V64.9946L148 72.7068C146.915 32.3633 114.189 0 74 0C33.8106 0 1.08548 32.3633 0 72.7068L74 42.2063L104.353 54.7161V35.4723Z" fill="var(--fill-0, #277691)"/>
<g id="Group 337">
<path id="Vector_2" fill-rule="evenodd" clip-rule="evenodd" d="M75.5948 65.8588L143.29 93.7729C144.087 91.9705 144.811 90.1279 145.454 88.245L75.5948 59.433L5.71555 88.245C6.3588 90.1279 7.08245 91.9638 7.87981 93.7729L75.5948 65.8588Z" fill="var(--fill-0, white)"/>
<path id="Vector_3" fill-rule="evenodd" clip-rule="evenodd" d="M16.0677 149.192H26.9694V146.753H18.9758V142.82H26.1721V140.388H18.9758V137.165H26.7081V134.706H16.0677V149.192Z" fill="var(--fill-0, white)"/>
<path id="Vector_4" fill-rule="evenodd" clip-rule="evenodd" d="M49.3288 149.192H52.7997L56.0092 144.187L59.1852 149.192H62.6762L57.758 141.748L62.2406 134.706H58.877L56.0494 139.37L53.1816 134.706H49.7979L54.247 141.634L49.3288 149.192Z" fill="var(--fill-0, white)"/>
<path id="Vector_5" fill-rule="evenodd" clip-rule="evenodd" d="M88.4328 137.165H89.8198C90.8248 137.165 91.5083 137.205 91.8902 137.259C92.4061 137.353 92.7814 137.587 93.0494 137.909C93.3509 138.257 93.5251 138.693 93.5251 139.195C93.5251 139.637 93.4112 140.019 93.2035 140.328C92.9757 140.676 92.6742 140.904 92.2922 141.038C91.8902 141.192 91.133 141.266 89.994 141.266H88.4395V137.158L88.4328 137.165ZM85.5248 149.192H88.4328V143.745H90.3156C91.6624 143.745 92.6541 143.671 93.3174 143.537C93.8467 143.423 94.3426 143.189 94.8183 142.847C95.3342 142.499 95.7296 142.043 96.0311 141.406C96.3326 140.81 96.5068 140.066 96.5068 139.162C96.5068 138.029 96.2187 137.111 95.6894 136.361C95.1198 135.631 94.4364 135.155 93.6189 134.94C93.0494 134.786 91.9103 134.713 90.1816 134.713H85.5315V149.199L85.5248 149.192Z" fill="var(--fill-0, white)"/>
<path id="Vector_6" fill-rule="evenodd" clip-rule="evenodd" d="M122.639 141.956C122.639 140.267 123 139.041 123.737 138.217C124.481 137.372 125.426 136.97 126.625 136.97C127.825 136.97 128.77 137.372 129.513 138.197C130.237 139.021 130.599 140.267 130.599 141.915C130.599 143.564 130.197 144.85 129.46 145.674C128.716 146.499 127.771 146.921 126.632 146.921C125.493 146.921 124.521 146.499 123.784 145.674C123.027 144.81 122.645 143.584 122.645 141.956H122.639ZM119.657 142.036C119.657 144.341 120.287 146.164 121.553 147.483C122.806 148.79 124.495 149.44 126.645 149.44C128.796 149.44 130.425 148.77 131.698 147.463C132.951 146.137 133.58 144.314 133.58 141.976C133.58 139.637 132.937 137.754 131.664 136.448C130.411 135.121 128.703 134.451 126.612 134.451C125.413 134.451 124.387 134.645 123.496 135.027C122.833 135.315 122.223 135.758 121.654 136.354C121.104 136.93 120.649 137.58 120.307 138.331C119.871 139.329 119.664 140.555 119.664 142.036H119.657Z" fill="var(--fill-0, white)"/>
<path id="Vector_7" fill-rule="evenodd" clip-rule="evenodd" d="M121.272 90.0272C116.374 88.2047 111.489 86.3822 106.591 84.5596C107.348 86.5765 107.75 88.8345 107.79 91.3673C107.851 96.3726 107.978 101.418 108.018 106.443C108.079 111.469 108.058 116.494 108.058 121.519C108.058 124.052 107.717 126.163 106.96 127.892H113.68C112.923 126.243 112.541 124.206 112.541 121.774C112.541 117.211 112.521 112.641 112.481 108.078C112.461 103.515 112.367 98.9456 112.293 94.3825C114.176 100.426 116.072 106.296 117.935 111.958C119.737 117.466 121.58 122.779 123.389 127.898H136.455C136.455 123.315 136.495 118.725 136.455 114.142C136.435 109.559 136.341 104.956 136.247 100.366C136.207 98.4095 136.569 96.9354 137.333 95.9906C135.075 95.1464 132.81 94.3222 130.592 93.478C131.369 95.1263 131.751 96.9488 131.771 98.9456C131.832 102.631 131.946 106.309 131.979 109.995C132.019 113.66 131.999 117.345 131.999 121.004C130.27 116.286 128.502 111.375 126.719 106.289C124.897 101.05 123.094 95.6221 121.285 90.0205L121.272 90.0272ZM83.9501 90.6973C83.93 89.451 83.9501 88.4325 84.0238 87.6687C84.1176 86.8847 84.2718 86.3286 84.4594 85.9399C84.647 85.558 84.9351 85.3436 85.2768 85.3101C85.5984 85.2498 86.0206 85.3101 86.5298 85.4642C87.7426 85.8461 88.942 86.2147 90.195 86.5966C90.7109 86.7708 91.1263 86.9584 91.4882 87.2264C91.85 87.4743 92.118 87.8429 92.3257 88.3186C92.5334 88.7943 92.7076 89.4108 92.8015 90.2014C92.8752 90.972 92.9355 91.9302 92.9556 93.096C93.0293 96.6272 93.0896 100.158 93.1298 103.669C93.17 107.201 93.1499 110.712 93.17 114.243C93.17 115.355 93.1298 116.273 93.0561 117.003C92.9958 117.714 92.8484 118.29 92.654 118.712C92.4463 119.134 92.1783 119.422 91.8567 119.576C91.4949 119.73 91.0392 119.784 90.5099 119.751C89.277 119.677 88.0776 119.596 86.8648 119.523C85.7995 119.462 85.0959 119.027 84.7408 118.236C84.3589 117.452 84.1712 115.797 84.1712 113.305C84.1712 109.546 84.1511 105.767 84.1109 102.008C84.0707 98.2487 84.0171 94.4696 83.9568 90.7107L83.9501 90.6973ZM80.4391 74.8373C79.568 74.5089 78.6903 74.4352 77.8527 74.6095C77.0151 74.8038 76.2178 75.3197 75.6482 76.3181C74.9447 77.5443 74.5494 79.3266 74.1875 81.4774C73.8257 83.6082 73.6582 86.1745 73.6917 89.2098C73.752 93.0826 73.8257 96.9421 73.8659 100.795C73.9061 104.648 73.9061 108.527 73.9262 112.38C73.9463 117.848 74.5695 121.781 75.789 124.2C77.0218 126.672 78.697 127.905 80.8813 127.905H96.4934C97.4784 127.905 98.3896 127.677 99.2272 127.255C100.065 126.813 100.802 126.103 101.412 125.124C102.021 124.146 102.51 122.839 102.872 121.211C103.234 119.603 103.402 117.586 103.402 115.127C103.402 111.944 103.402 108.755 103.361 105.592C103.341 102.41 103.268 99.2203 103.227 96.0376C103.167 91.7962 102.504 88.4057 101.331 85.8729C100.152 83.3 98.4231 81.5377 96.1048 80.6734C90.8784 78.7369 85.6789 76.8005 80.4324 74.844L80.4391 74.8373ZM51.2853 94.8449C51.2652 93.7326 51.2853 92.8146 51.3791 92.0843C51.4529 91.3338 51.607 90.7442 51.8147 90.2819C52.0023 89.8396 52.2703 89.4979 52.5919 89.2433C52.9136 89.0155 53.3491 88.8211 53.865 88.6469C55.0778 88.2851 56.2772 87.8965 57.49 87.5347C58.0059 87.3805 58.4213 87.3403 58.7832 87.3805C59.145 87.4208 59.4264 87.5883 59.6408 87.9568C59.8485 88.3186 60.0027 88.8747 60.0965 89.6051C60.1903 90.3556 60.2305 91.3137 60.2506 92.4997C60.3109 96.0845 60.3645 99.6558 60.4047 103.241C60.4449 106.825 60.4248 110.417 60.4449 114.002C60.465 115.134 60.4248 116.072 60.3712 116.822C60.2975 117.553 60.1635 118.163 59.9557 118.605C59.7681 119.067 59.5001 119.389 59.1584 119.583C58.7966 119.777 58.361 119.891 57.8317 119.911C56.5988 119.985 55.3793 120.065 54.1866 120.139C53.1213 120.199 52.4177 119.891 52.0626 119.235C51.7008 118.565 51.5132 117.124 51.5132 114.919C51.4931 111.563 51.4931 108.226 51.4529 104.869C51.4126 101.532 51.359 98.1951 51.2987 94.8382L51.2853 94.8449ZM47.8279 83.0855C46.9367 83.4139 46.0791 83.9097 45.2616 84.5999C44.4241 85.3101 43.687 86.2281 43.0572 87.3805C42.4273 88.5129 41.9382 89.9334 41.5563 91.642C41.1944 93.3306 41.0269 95.3474 41.0604 97.7261C41.1006 100.735 41.1743 103.75 41.2145 106.758C41.2346 109.767 41.2346 112.782 41.2346 115.791C41.2346 120.052 41.8779 123.101 43.0974 124.997C44.3102 126.913 46.0054 127.892 48.1897 127.892H63.8018C64.7868 127.892 65.6846 127.644 66.5155 127.161C67.3531 126.665 68.0901 125.835 68.6999 124.689C69.3096 123.516 69.8188 121.962 70.1606 120.005C70.5224 118.069 70.6899 115.63 70.6765 112.715C70.6564 108.936 70.6564 105.157 70.6162 101.378C70.576 97.5988 70.5224 93.8197 70.4621 90.0406C70.3884 84.9952 69.7585 81.3702 68.5793 79.2395C67.4201 77.1489 65.6712 76.5325 63.3931 77.3767C58.1868 79.273 52.9873 81.1759 47.8212 83.0721L47.8279 83.0855ZM19.9271 127.898H32.4034C31.6463 126.344 31.2643 124.448 31.2643 122.163C31.2643 117.734 31.2643 113.318 31.2241 108.909C31.1839 104.48 31.0901 100.044 31.0164 95.6355C32.5709 95.1397 34.1857 94.6573 35.7805 94.1748C37.3216 93.6924 38.5142 93.7527 39.392 94.3289C39.0905 91.7023 38.7622 89.0892 38.5008 86.4827C30.0851 89.5716 21.6894 92.6404 13.2803 95.7092C12.9922 97.8936 12.7844 100.065 12.5566 102.215C13.3942 101.331 14.5668 100.641 16.1079 100.165C17.6825 99.6826 19.2437 99.227 20.8384 98.7244C20.9121 102.731 21.0126 106.725 21.0461 110.732C21.0863 114.725 21.0662 118.712 21.0662 122.719C21.0662 124.85 20.7044 126.572 19.9271 127.898Z" fill="var(--fill-0, white)"/>
</g>
</g>
</svg>
