<svg preserveAspectRatio="none" width="100%" height="100%" overflow="visible" style="display: block;" viewBox="0 0 50.5106 70.2744" fill="none" xmlns="http://www.w3.org/2000/svg">
<g id="Layer_x0020_1">
<path id="Vector" d="M50.5067 25.2449C50.4618 29.4641 49.501 34.0477 47.6535 38.4248C42.7321 50.0768 35.2367 60.0177 26.8469 69.3526C25.9232 70.3815 24.8647 70.6875 23.8668 69.5494C14.1919 58.5269 4.94478 47.2023 0.984234 32.6816C-3.01342 18.007 5.54434 3.56035 19.8125 0.582552C35.6117 -2.71485 49.6396 8.31937 50.5106 25.2429H50.5067V25.2449ZM40.3651 25.0325C40.3944 16.5668 33.6549 9.65237 25.351 9.62703C17.0276 9.6017 10.0283 16.5122 9.99117 24.8064C9.95406 33.2117 16.7464 39.9858 25.2182 39.9975C33.6568 40.0092 40.3359 33.4104 40.3632 25.0305L40.3651 25.0325Z" fill="var(--fill-0, #192643)"/>
</g>
</svg>
