<svg preserveAspectRatio="none" width="100%" height="100%" overflow="visible" style="display: block;" viewBox="0 0 36 50" fill="none" xmlns="http://www.w3.org/2000/svg">
<path id="Vector" d="M35.9972 17.9616C35.9652 20.9636 35.2804 24.2248 33.9637 27.3391C30.4561 35.6294 25.114 42.7024 19.1344 49.3441C18.476 50.0762 17.7216 50.2939 17.0103 49.4841C10.1149 41.6416 3.52425 33.5842 0.701484 23.2528C-2.14773 12.8119 3.95157 2.53318 14.1208 0.414484C25.3812 -1.93161 35.3792 5.9192 36 17.9603H35.9972V17.9616ZM28.7691 17.8105C28.79 11.7872 23.9865 6.86762 18.0682 6.8496C12.1359 6.83157 7.14736 11.7484 7.12091 17.6497C7.09447 23.63 11.9355 28.4497 17.9735 28.458C23.9879 28.4664 28.7482 23.7714 28.7677 17.8091L28.7691 17.8105Z" fill="var(--fill-0, #192643)"/>
</svg>
