<svg width="16" height="16" viewBox="0 0 16 16" fill="none" xmlns="http://www.w3.org/2000/svg">
<path d="M13.3334 6.66668C13.3334 9.99534 9.64075 13.462 8.40075 14.5327C8.28523 14.6195 8.14461 14.6665 8.00008 14.6665C7.85555 14.6665 7.71493 14.6195 7.59941 14.5327C6.35941 13.462 2.66675 9.99534 2.66675 6.66668C2.66675 5.25219 3.22865 3.89563 4.22885 2.89544C5.22904 1.89525 6.58559 1.33334 8.00008 1.33334C9.41457 1.33334 10.7711 1.89525 11.7713 2.89544C12.7715 3.89563 13.3334 5.25219 13.3334 6.66668Z" stroke="#45556C" stroke-width="1.33333" stroke-linecap="round" stroke-linejoin="round"/>
<path d="M8 8.66666C9.10457 8.66666 10 7.77123 10 6.66666C10 5.56209 9.10457 4.66666 8 4.66666C6.89543 4.66666 6 5.56209 6 6.66666C6 7.77123 6.89543 8.66666 8 8.66666Z" stroke="#45556C" stroke-width="1.33333" stroke-linecap="round" stroke-linejoin="round"/>
</svg>
