<svg preserveAspectRatio="none" width="100%" height="100%" overflow="visible" style="display: block;" viewBox="0 0 45 41" fill="none" xmlns="http://www.w3.org/2000/svg">
<g id="Layer_1" clip-path="url(#clip0_0_5)">
<path id="Vector" d="M12.0039 30.5688C9.52794 30.6356 7.08092 30.2256 4.70135 29.3674C3.54528 28.9479 2.50482 28.3472 1.51252 27.6321C0.558767 26.9456 0.0385356 26.0684 0.0385356 24.8956C0.0385356 24.066 0.0192678 23.246 0.0289017 22.4165C0.0481695 20.5477 0.944123 19.1556 2.43738 18.0972C4.09441 16.934 5.97303 16.3333 7.96724 16.0186C10.5877 15.6086 13.2081 15.58 15.8285 15.9805C17.9383 16.3047 19.9326 16.953 21.7245 18.164C23.2659 19.2033 24.1426 20.5858 24.0559 22.4833C24.0173 23.37 24.0173 24.2567 23.9884 25.1435C23.9595 25.9444 23.6127 26.5833 23.0154 27.1363C21.9171 28.147 20.6455 28.8526 19.2389 29.3579C16.9268 30.1874 14.5376 30.626 12.0231 30.5688H12.0039ZM12.5048 17.344C10.0096 17.3249 7.90944 17.5442 5.90559 18.2879C4.89403 18.6598 3.8921 19.146 3.02505 19.7658C1.31021 21.0053 1.33911 22.5214 2.98651 23.8563C3.13102 23.9802 3.2948 24.0947 3.46821 24.1709C4.50867 24.6477 5.52023 25.2484 6.6185 25.563C10.2023 26.6023 13.8343 26.5833 17.4374 25.5916C18.8728 25.1912 20.1927 24.5428 21.2813 23.513C22.4759 22.3688 22.4855 21.1865 21.3295 20.0423C20.3565 19.0793 19.1811 18.45 17.8516 18.1067C15.9827 17.63 14.0944 17.2677 12.5144 17.344H12.5048Z" fill="var(--fill-0, #192643)"/>
<path id="Vector_2" d="M32.8227 14.9507C30.5973 14.9984 28.4778 14.5121 26.368 13.9591C24.7303 13.5205 23.2948 12.7195 22.0328 11.5944C21.474 11.0986 21.1657 10.517 21.0597 9.80186C20.8285 8.20953 20.9152 6.63628 21.2524 5.07256C21.4162 4.30023 21.9075 3.69954 22.4566 3.16558C23.3815 2.25977 24.4701 1.58279 25.7033 1.18233C30.2119 -0.305116 34.7592 -0.352791 39.3256 0.896279C40.7707 1.28721 42.0617 2.01186 43.1792 2.97488C44.2871 3.92837 45 5.08209 44.894 6.62674C44.8362 7.38 44.8555 8.15233 44.894 8.90558C44.9518 10.2977 44.3545 11.3274 43.2466 12.1474C41.5029 13.4347 39.4894 14.064 37.3988 14.4549C35.896 14.7314 34.3545 14.8077 32.8227 14.9793V14.9507ZM32.3314 1.64C31.6185 1.69721 30.2601 1.72581 28.9403 1.95465C26.975 2.29791 25.0963 2.95581 23.5742 4.3193C22.3892 5.37767 22.3603 6.62674 23.4971 7.7614C24.6146 8.88651 26.0405 9.45861 27.5241 9.86861C30.79 10.7649 34.1137 10.8412 37.4181 10.1547C38.5934 9.91628 39.711 9.37279 40.8189 8.88651C41.6474 8.52419 42.2929 7.90442 42.7842 7.12256C43.2948 6.32163 43.2274 5.56837 42.6879 4.82465C42.0231 3.91884 41.1079 3.37535 40.0771 2.95581C37.7938 2.0214 35.4143 1.64 32.3314 1.63047V1.64Z" fill="var(--fill-0, #192643)"/>
<path id="Vector_3" d="M23.6416 33.8584C24.2967 35.8798 24.0366 36.8905 22.6975 37.9298C20.5684 39.5793 18.1214 40.4565 15.4528 40.7902C13.0154 41.0953 10.578 41.0667 8.15029 40.7521C5.61657 40.4279 3.3237 39.503 1.29094 37.9584C0.52023 37.3767 0.0674362 36.6902 0.0481684 35.7177C0.0385345 35.1074 -0.115608 34.4877 0.183043 33.744C0.558766 33.9347 0.838149 34.0491 1.08863 34.2207C3.75722 36.0323 6.7341 36.8905 9.95183 37.024C12.7168 37.1384 15.4624 37.1002 18.1696 36.4328C19.8073 36.0228 21.3006 35.3458 22.6879 34.4019C22.9383 34.2302 23.2177 34.0967 23.632 33.8584H23.6416Z" fill="var(--fill-0, #192643)"/>
<path id="Vector_4" d="M44.499 12.9674C44.6821 13.2535 44.9037 13.4442 44.9229 13.6635C45.106 15.1605 44.6532 16.4191 43.343 17.2867C41.7823 18.3165 40.0867 19.0412 38.2755 19.4893C34.4605 20.4333 30.6358 20.2616 26.8593 19.3749C25.0482 18.9458 23.4104 18.0019 21.975 16.8195C20.9056 15.9328 20.6744 14.5979 21.2909 12.9484C21.5703 13.0819 21.8497 13.1867 22.0906 13.3488C24.2967 14.8553 26.7534 15.6563 29.4027 15.9995C32.1002 16.3428 34.7688 16.2188 37.447 15.9042C39.6532 15.6467 41.6185 14.7695 43.4875 13.6158C43.8054 13.4251 44.1137 13.2249 44.499 12.9865V12.9674Z" fill="var(--fill-0, #192643)"/>
<path id="Vector_5" d="M23.7862 28.7191C24.1811 30.1398 24.0944 31.284 23.0347 32.3042C21.8112 33.477 20.4047 34.3542 18.7765 34.8023C14.2293 36.0514 9.67248 36.1372 5.11564 34.7928C3.48751 34.3065 2.12913 33.353 0.847816 32.2851C0.327585 31.856 0.0578355 31.2935 0.0385676 30.626C0.0192998 30.0063 -0.105941 29.377 0.269782 28.6523C1.78231 29.396 3.21776 30.197 4.72065 30.8167C6.20427 31.427 7.81313 31.5891 9.41236 31.7416C11.079 31.8942 12.7361 32.0753 14.3931 31.7988C15.9634 31.5414 17.5916 31.3888 19.0848 30.9026C20.6359 30.3972 22.0713 29.5295 23.7765 28.7286L23.7862 28.7191Z" fill="var(--fill-0, #192643)"/>
<path id="Vector_6" d="M25.5395 25.7633C27.3699 26.0207 29.0077 26.3067 30.6551 26.4784C33.8728 26.8121 37.0713 26.6119 40.1541 25.6107C41.1753 25.277 42.1291 24.7144 43.1021 24.2472C43.3911 24.1042 43.632 23.8849 43.9017 23.7228C44.4701 23.4081 44.9422 23.6751 44.9518 24.3044C44.9711 25.5726 44.605 26.6119 43.5549 27.4795C41.975 28.7858 40.1156 29.4628 38.1888 29.9395C34.4412 30.874 30.684 30.7309 26.9557 29.7584C26.58 29.663 26.1946 29.5677 25.8671 29.377C25.6069 29.234 25.2794 28.9765 25.2408 28.7286C25.0867 27.7465 24.9037 26.7358 25.5299 25.7537L25.5395 25.7633Z" fill="var(--fill-0, #192643)"/>
<path id="Vector_7" d="M25.4143 20.6812C26.0501 20.3951 26.6667 20.6812 27.2736 20.8147C30.7033 21.5298 34.1329 21.6442 37.6012 21.053C39.7881 20.6812 41.8112 19.9756 43.632 18.6979C43.921 18.4977 44.2775 18.3833 44.6821 18.183C45.1445 18.9267 45.0289 19.6133 44.894 20.2807C44.7495 20.9767 44.4894 21.6347 43.8921 22.0733C43.4297 22.4165 42.9576 22.7502 42.4566 23.0267C40.2408 24.2472 37.8902 24.9814 35.3468 25.1816C32.7649 25.3819 30.2216 25.2865 27.6879 24.7812C27.1869 24.6763 26.6956 24.5142 26.2042 24.3902C25.7033 24.2663 25.4624 23.923 25.3276 23.4749C25.1156 22.7788 25.1638 21.73 25.4239 20.6812H25.4143Z" fill="var(--fill-0, #192643)"/>
<path id="Vector_8" d="M44.6725 28.557C45.0867 30.0444 44.7206 31.1791 43.7669 32.1516C42.7746 33.1623 41.5607 33.8679 40.2601 34.4495C38.2948 35.3172 36.2139 35.6319 34.0944 35.7463C31.6474 35.8798 29.2293 35.6223 26.8593 34.993C25.2987 34.5735 25.1734 34.3828 25.1541 32.7333C25.1541 32.1707 25.0482 31.5795 25.5588 31.0074C25.7225 31.0074 25.973 30.9502 26.2042 31.0074C27.7457 31.4461 29.3353 31.6081 30.9249 31.7988C33.7765 32.1421 36.5511 31.7702 39.3064 31.1219C40.8671 30.75 42.3121 30.0444 43.632 29.11C43.921 28.9002 44.2678 28.7763 44.6821 28.557H44.6725Z" fill="var(--fill-0, #192643)"/>
</g>
<defs>
<clipPath id="clip0_0_5">
<rect width="45" height="41" fill="white"/>
</clipPath>
</defs>
</svg>
