<svg preserveAspectRatio="none" width="100%" height="100%" overflow="visible" style="display: block;" viewBox="0 0 43 37.9905" fill="none" xmlns="http://www.w3.org/2000/svg">
<g id="Group 372">
<path id="Vector" d="M40.7502 17.3977C41.3638 17.5399 41.802 17.6253 42.2306 17.758C42.776 17.9192 43 18.2131 43 18.7061C43 19.2844 42.7176 19.73 42.1721 19.8343C41.6657 19.9386 41.1495 19.9671 40.6333 19.9671C37.0589 19.9955 33.4942 20.005 29.9198 20.024C29.4036 20.024 28.8777 20.024 28.3615 20.0524C27.3583 20.1093 26.6376 20.6497 26.2383 21.4935C25.6247 22.8019 25.8195 24.0818 26.6668 25.2575C26.9882 25.7031 27.4557 25.9117 27.9914 25.9591C28.829 26.0254 29.6763 26.0918 30.5139 26.0918C34.0883 26.1203 37.653 26.1108 41.2274 26.1392C41.7339 26.1392 42.2306 26.234 42.6981 26.2909C43.1266 28.1302 43.0877 28.1776 40.9352 28.519C40.4969 28.8982 40.5651 29.4291 40.5554 29.9222C40.5164 31.8184 40.5067 33.7146 40.4872 35.6108C40.4872 36.3029 40.5456 37.014 40.0392 37.6208C39.0652 38.0569 38.0134 37.9147 36.9907 37.9147C30.2997 37.9336 23.6183 37.9242 16.9273 37.9431C13.9373 37.9431 10.957 37.981 7.96693 37.9905C7.06116 37.9905 6.14564 37.9905 5.23986 37.9147C2.38618 37.6682 0.224009 35.4496 0.0876557 32.6622C0.0292186 31.4676 0.00973952 30.2635 0.00973952 29.0594C0 21.7969 0 14.525 0 7.26248C0 6.38074 0.0292186 5.48952 0.116874 4.60778C0.370102 2.03842 2.30827 0.218064 4.96716 0.0379242C5.60997 0 6.26251 0 6.91506 0C16.9176 0 26.9103 0 36.9128 0C37.7601 0 38.5977 0.00948104 39.4451 0.0758483C40.0879 0.123253 40.4872 0.606786 40.5067 1.22305C40.5262 1.85828 40.1561 2.37026 39.5522 2.44611C38.851 2.53144 38.1302 2.56936 37.4192 2.56936C28.3907 2.56936 19.3719 2.5504 10.3434 2.5504C8.59026 2.5504 6.83715 2.54092 5.08403 2.5978C3.78867 2.64521 3.09717 3.27096 2.77576 4.50349C2.42514 5.85928 2.8342 7.08234 3.91529 7.64172C4.29513 7.84082 4.77237 7.93563 5.21065 7.97355C5.92163 8.03992 6.63262 8.03044 7.35334 8.03044C17.0929 8.03044 26.8324 8.03044 36.5719 8.03044C37.4777 8.03044 38.3932 8.03044 39.299 8.09681C40.0294 8.14421 40.3703 8.44761 40.4677 9.13972C40.5554 9.76547 40.5651 10.4007 40.5749 11.0264C40.6041 12.6667 40.5943 14.3164 40.6236 15.9566C40.6236 16.3927 40.7112 16.8288 40.7696 17.3977H40.7502Z" fill="var(--fill-0, #192643)"/>
<path id="Vector_2" d="M36.4456 6.13418C35.608 6.1721 34.7119 6.25743 33.8159 6.25743C25.3133 6.28588 16.8107 6.29536 8.31783 6.30484C7.34387 6.30484 6.36992 6.24795 5.40571 6.1721C4.72394 6.11522 4.3928 5.67909 4.4415 5.00594C4.47071 4.65514 4.65577 4.38967 4.99665 4.3233C5.44467 4.24745 5.90242 4.21901 6.35044 4.21901C15.827 4.21901 25.3036 4.22849 34.7704 4.23797C35.0333 4.23797 35.2866 4.23797 35.5495 4.24745C36.7962 4.3233 36.9812 4.65514 36.4553 6.11522L36.4456 6.13418Z" fill="var(--fill-0, #192643)"/>
<path id="Vector_3" d="M28.0694 22.9821C28.1083 22.1004 28.5466 21.6264 29.3063 21.6548C30.2315 21.6927 30.8451 22.2426 30.8062 23.0011C30.777 23.7217 30.0368 24.3759 29.2576 24.3569C28.4979 24.3379 28.0207 23.788 28.0596 22.9821H28.0694Z" fill="var(--fill-0, #192643)"/>
</g>
</svg>
