<svg preserveAspectRatio="none" width="100%" height="100%" overflow="visible" style="display: block;" viewBox="0 0 33.4258 33.3718" fill="none" xmlns="http://www.w3.org/2000/svg">
<path id="Vector" d="M28.5909 16.7468C28.6029 15.1825 28.3048 13.6775 27.7253 12.2273C27.6736 12.0982 27.6812 12.0101 27.7776 11.9184C28.8754 10.8729 29.9278 9.7823 30.9958 8.70706C31.2066 8.49505 31.25 8.50388 31.3949 8.77212C31.9701 9.83504 32.4378 10.9417 32.7767 12.1027C33.2568 13.7469 33.4702 15.4269 33.4181 17.1343C33.3636 18.9192 33.0527 20.6611 32.4275 22.3432C31.6286 24.4924 30.4494 26.4026 28.8791 28.0769C27.4068 29.647 25.699 30.8952 23.7511 31.81C21.9846 32.6395 20.1282 33.1376 18.1762 33.3072C16.3202 33.4685 14.4915 33.3275 12.6896 32.8901C11.2167 32.5326 9.82464 31.9559 8.5061 31.2014C7.18118 30.4433 5.97381 29.5333 4.90168 28.4521C3.90264 27.4448 3.02979 26.3371 2.30763 25.1104C1.59453 23.8989 1.02409 22.6277 0.635217 21.2805C0.287518 20.076 0.0853627 18.8451 0.0225751 17.5883C-0.0468 16.1994 0.0421325 14.8258 0.311398 13.4645C0.657039 11.7162 1.27915 10.0698 2.16291 8.51948C2.93324 7.1684 3.86723 5.94355 4.97353 4.85087C6.27683 3.56383 7.75183 2.50973 9.3948 1.6972C11.1247 0.841771 12.9564 0.313697 14.8744 0.103124C17.3437 -0.167994 19.7591 0.0945039 22.1104 0.902111C23.0279 1.21715 23.9037 1.62721 24.7561 2.08817C24.9007 2.16637 24.9377 2.2302 24.8049 2.36155C24.0027 3.15561 23.2056 3.95501 22.4069 4.75276C22.1224 5.03681 21.8333 5.31676 21.556 5.60778C21.4288 5.74119 21.3106 5.74878 21.1435 5.6829C19.3029 4.95739 17.4009 4.69099 15.4286 4.9108C14.1465 5.05364 12.9208 5.38859 11.7511 5.92159C10.0752 6.68527 8.65864 7.78534 7.4945 9.21338C6.75587 10.1193 6.15949 11.1075 5.7138 12.1836C5.2712 13.252 5.00626 14.3661 4.88027 15.5176C4.74255 16.7749 4.8179 18.0213 5.09725 19.2454C5.517 21.0843 6.31286 22.7529 7.5297 24.2113C9.04628 26.0288 10.9301 27.3009 13.1933 28.0088C14.9833 28.5687 16.8025 28.6951 18.6557 28.3821C20.5555 28.0611 22.2815 27.3346 23.8145 26.1783C25.2864 25.0683 26.4557 23.6972 27.2985 22.0489C28.1518 20.3801 28.5771 18.6155 28.5905 16.747L28.5909 16.7468Z" fill="var(--fill-0, black)"/>
</svg>
