<svg preserveAspectRatio="none" width="100%" height="100%" overflow="visible" style="display: block;" viewBox="0 0 33.2617 33.2437" fill="none" xmlns="http://www.w3.org/2000/svg">
<path id="Vector" d="M4.83327 23.5692C5.56819 23.5605 6.26338 23.7296 6.92728 24.0287C7.07283 24.0944 7.16444 24.0767 7.27293 23.9685C8.12725 23.1168 8.98775 22.271 9.84227 21.4197C12.3406 18.9308 14.8356 16.4384 17.3375 13.9528C17.5281 13.7634 17.6135 13.5885 17.5691 13.304C17.3957 12.191 17.2574 11.0727 17.0985 9.95723C17.0735 9.78176 17.1697 9.6816 17.2734 9.57796C18.1595 8.69216 19.0465 7.80717 19.9338 6.9226C22.2067 4.65658 24.4796 2.39077 26.7531 0.125367C26.8062 0.0724164 26.8536 -0.0226082 26.9351 0.0048935C27.0216 0.0340371 26.9923 0.137682 26.9944 0.211567C27.031 1.48465 27.0539 2.75835 27.1064 4.03082C27.1333 4.68696 27.1455 5.34269 27.1465 5.99863C27.1469 6.22603 27.2278 6.2915 27.444 6.29335C28.8303 6.30546 30.2163 6.32475 31.6024 6.3465C32.0822 6.3541 32.5619 6.3738 33.0413 6.39084C33.1146 6.3935 33.2145 6.35882 33.2515 6.4442C33.2937 6.54148 33.1947 6.59402 33.1379 6.65087C31.9073 7.88106 30.675 9.11002 29.4431 10.339C27.5762 12.2017 25.7082 14.0636 23.8437 15.9288C23.7233 16.0493 23.6086 16.0889 23.4328 16.0643C22.2602 15.9001 21.0854 15.7523 19.912 15.5949C19.7761 15.5766 19.6933 15.6429 19.6089 15.7266C18.692 16.6358 17.7735 17.5432 16.8578 18.4536C15.767 19.5383 14.679 20.6259 13.5891 21.7113C12.1924 23.1026 10.796 24.4942 9.39638 25.8826C9.21687 26.0607 9.13597 26.2015 9.26072 26.487C9.84495 27.8233 9.84475 29.1729 9.20575 30.4963C8.33558 32.2985 6.53018 33.3717 4.53086 33.2315C2.89406 33.1168 1.63172 32.3293 0.74096 30.9525C0.239483 30.1776 -0.00466725 29.3209 6.75489e-05 28.4084C0.00603751 27.2683 0.37 26.2409 1.10925 25.3582C1.92734 24.3811 2.95932 23.7797 4.23174 23.6102C4.43061 23.5837 4.63276 23.5821 4.83327 23.5689V23.5692Z" fill="var(--fill-0, black)"/>
</svg>
