<svg preserveAspectRatio="none" width="100%" height="100%" overflow="visible" style="display: block;" viewBox="0 0 57 56.9999" fill="none" xmlns="http://www.w3.org/2000/svg">
<path id="Vector" d="M28.4956 52.2125C35.7156 52.1421 42.9137 48.7454 47.3457 43.0332C52.7697 36.0427 53.7858 25.9259 49.8599 18.0019C51.0419 16.8286 52.2238 15.6551 53.4058 14.4817C58.6133 23.6626 58.1229 35.7666 52.19 44.499C46.2569 53.2315 35.1643 58.1754 24.6808 56.7599C14.1973 55.3444 4.82325 47.6369 1.43375 37.6458C1.10808 36.6861 0.838606 35.7077 0.624717 34.7173C0.410004 33.7233 0.251491 32.7174 0.147943 31.706C0.044189 30.6944 -0.00460005 29.677 0.000340615 28.6599C0.00528128 27.6419 0.0637458 26.6242 0.174293 25.6121C0.285046 24.5993 0.448088 23.5922 0.661978 22.5958C0.875867 21.5993 1.14081 20.6138 1.45557 19.6445C1.77013 18.6755 2.1345 17.7226 2.54746 16.7913C2.96 15.8607 3.42113 14.9515 3.92961 14.0694C4.43767 13.1879 4.99329 12.3335 5.59441 11.5124C6.19593 10.6906 6.84336 9.90207 7.53403 9.15337C7.70695 8.96578 7.88275 8.78086 8.06103 8.59841C8.14585 8.51159 8.22428 8.44961 8.32597 8.38599C8.43734 8.31641 8.52648 8.20497 8.61994 8.11364C9.0152 7.72656 9.42218 7.35119 9.83987 6.98833C10.6755 6.26261 11.5541 5.58635 12.4691 4.96325C13.3844 4.33995 14.3359 3.7698 15.317 3.25589C16.2981 2.74198 17.3091 2.2843 18.3432 1.88634C19.377 1.48839 20.4339 1.15016 21.5072 0.874938C22.5322 0.61203 23.572 0.406793 24.6205 0.261896C30.7562 -0.585732 37.1613 0.641173 42.5452 3.6953C41.6816 4.62667 40.818 5.55803 39.9544 6.4896C39.7537 6.70592 39.5388 6.93148 39.2551 7.01419C38.8745 7.12522 38.4755 6.95323 38.1126 6.79376C29.9998 3.23126 19.9067 4.68742 13.1398 10.3967C6.37297 16.106 3.26324 25.789 5.44557 34.355C7.62811 42.921 14.9959 49.9508 23.6754 51.7484C25.2628 52.0772 26.8796 52.2283 28.4956 52.2125Z" fill="var(--fill-0, black)"/>
</svg>
