<svg preserveAspectRatio="none" width="100%" height="100%" overflow="visible" style="display: block;" viewBox="0 0 45 45" fill="none" xmlns="http://www.w3.org/2000/svg">
<path id="Vector" d="M45 22.5C45 26.9501 43.6804 31.3002 41.2081 35.0003C38.7357 38.7004 35.2217 41.5843 31.1104 43.2873C26.999 44.9902 22.475 45.4358 18.1105 44.5677C13.7459 43.6995 9.73679 41.5566 6.59011 38.4099C3.44343 35.2632 1.30051 31.2541 0.432341 26.8895C-0.435826 22.525 0.00974887 18.001 1.71272 13.8896C3.41569 9.77828 6.29957 6.26426 9.99968 3.79193C13.6998 1.3196 18.0499 0 22.5 0C25.4547 0 28.3806 0.58198 31.1104 1.71271C33.8402 2.84344 36.3206 4.50078 38.4099 6.5901C40.4992 8.67941 42.1566 11.1598 43.2873 13.8896C44.418 16.6194 45 19.5453 45 22.5ZM36.8918 32.0718C36.8903 31.8341 36.7952 31.6065 36.6271 31.4384C36.459 31.2703 36.2315 31.1752 35.9938 31.1737H35.0445V30.054C35.0438 29.8158 34.949 29.5875 34.7808 29.4188C34.6127 29.2501 34.3847 29.1546 34.1465 29.1531H33.2995V21.565H33.9077C34.1917 21.5448 34.4574 21.4177 34.6514 21.2094C34.8454 21.0011 34.9532 20.727 34.9532 20.4424C34.9532 20.1578 34.8454 19.8837 34.6514 19.6754C34.4574 19.4671 34.1917 19.34 33.9077 19.3198H11.0099C10.7259 19.34 10.4602 19.4671 10.2662 19.6754C10.0722 19.8837 9.96436 20.1578 9.96436 20.4424C9.96436 20.727 10.0722 21.0011 10.2662 21.2094C10.4602 21.4177 10.7259 21.5448 11.0099 21.565H11.6521V29.1531H10.7058C10.4671 29.1538 10.2383 29.249 10.0696 29.4178C9.90077 29.5866 9.80561 29.8153 9.80486 30.054V31.1737H8.85848C8.62026 31.1745 8.39197 31.2692 8.22326 31.4374C8.05455 31.6056 7.95907 31.8336 7.95757 32.0718V33.1915H36.8947L36.8918 32.0718ZM11.655 17.4526H33.2995C33.2995 14.582 32.1592 11.829 30.1294 9.79912C28.0995 7.76928 25.3465 6.62893 22.4758 6.62893C19.6052 6.62893 16.8522 7.76928 14.8223 9.79912C12.7925 11.829 11.655 14.582 11.655 17.4526ZM16.3897 22.7586V29.1531H14.1446V22.7586C14.1591 22.4703 14.2838 22.1986 14.493 21.9996C14.7022 21.8007 14.9799 21.6897 15.2686 21.6897C15.5573 21.6897 15.8349 21.8007 16.0441 21.9996C16.2533 22.1986 16.3752 22.4703 16.3897 22.7586ZM21.1813 22.7757V29.1531H18.9333V22.7757C18.9478 22.4873 19.0726 22.2156 19.2818 22.0167C19.491 21.8177 19.7686 21.7068 20.0573 21.7068C20.346 21.7068 20.6237 21.8177 20.8329 22.0167C21.0421 22.2156 21.1668 22.4873 21.1813 22.7757ZM25.9729 22.7956V29.1531H23.7249V22.7956C23.7394 22.5072 23.8642 22.2355 24.0734 22.0366C24.2826 21.8376 24.5602 21.7267 24.8489 21.7267C25.1376 21.7267 25.4153 21.8376 25.6245 22.0366C25.8337 22.2355 25.9584 22.5072 25.9729 22.7956ZM30.7645 22.8126V29.1531H28.5136V22.8155C28.5136 22.517 28.6322 22.2307 28.8433 22.0197C29.0543 21.8086 29.3406 21.69 29.6391 21.69C29.9376 21.69 30.2238 21.8086 30.4349 22.0197C30.6459 22.2307 30.7645 22.5141 30.7645 22.8126Z" fill="var(--fill-0, #FBCD06)"/>
</svg>
