<svg preserveAspectRatio="none" width="100%" height="100%" overflow="visible" style="display: block;" viewBox="0 0 60 60" fill="none" xmlns="http://www.w3.org/2000/svg">
<g id="Group 354">
<path id="Rectangle 13" d="M0 10C0 4.47715 4.47715 0 10 0H50C55.5228 0 60 4.47715 60 10V50C60 55.5228 55.5228 60 50 60H10C4.47715 60 0 55.5228 0 50V10Z" fill="var(--fill-0, #FFFFF8)"/>
<g id="_2609211923744">
<path id="Vector" d="M45.71 30.5223C45.71 28.9699 45.71 27.4175 45.71 25.8763C45.71 24.3239 45.7212 22.7715 45.71 21.2191C45.6877 17.3325 42.6826 14.3505 38.8062 14.3505C32.6061 14.3505 26.3948 14.3505 20.1948 14.3505C16.3854 14.3505 13.3579 17.366 13.3579 21.1744C13.3579 27.384 13.3579 33.5936 13.3579 39.8033C13.3579 43.6675 16.3518 46.683 20.2171 46.6942C26.4172 46.7053 32.6284 46.6942 38.8285 46.6942C39.7445 46.6942 40.6383 46.5378 41.4873 46.1804C44.079 45.1082 45.71 42.64 45.71 39.7586C45.71 36.6761 45.71 33.5936 45.71 30.5112V30.5223ZM19.3122 11.0112H39.711C39.9121 11.0447 40.1132 11.0893 40.3143 11.1117C45.185 11.7595 48.9832 16.0258 49.0056 20.9399C49.0391 26.5464 49.0167 32.1529 49.0056 37.7594C49.0056 38.9321 49.0279 40.1048 48.8938 41.2552C48.4023 45.3763 45.2073 48.8385 41.1521 49.732C40.6494 49.8436 40.1467 49.9107 39.644 50H19.3681C19.1558 49.9665 18.9436 49.9218 18.7425 49.8995C13.883 49.2741 10.0401 44.9966 10.0177 40.0936C9.9842 34.4759 10.0065 28.8582 10.0177 23.2406C10.0177 22.0679 9.9842 20.8729 10.1294 19.7113C10.6321 15.6014 13.816 12.1615 17.8711 11.2569C18.3515 11.1564 18.8319 11.0782 19.3234 11L19.3122 11.0112Z" fill="var(--fill-0, #2BA8B0)"/>
<path id="Vector_2" d="M36.2814 30.5335C36.2814 26.8256 33.2763 23.799 29.5563 23.7878C25.8362 23.7767 22.7976 26.7921 22.7976 30.5224C22.7976 34.2303 25.8027 37.2569 29.5228 37.2681C33.254 37.2792 36.2814 34.2638 36.2814 30.5335ZM29.5451 20.8282C34.9073 20.8394 39.2418 25.1839 39.2418 30.5559C39.2306 35.9055 34.885 40.2388 29.5339 40.2388C24.1717 40.2388 19.8261 35.872 19.8372 30.5112C19.8484 25.1615 24.2052 20.817 29.5563 20.8282H29.5451Z" fill="var(--fill-0, #2BA8B0)"/>
<path id="Vector_3" fill-rule="evenodd" clip-rule="evenodd" d="M12.8776 14.0709H46.1569V26.3673H36.4826C32.3045 21.1182 27.7131 20.4816 22.5185 26.3673H12.8776V14.0709ZM40.3367 17.4885C41.5767 17.5108 42.571 18.5271 42.5486 19.7445C42.5263 20.9842 41.5209 21.9781 40.292 21.967C39.0408 21.9558 38.0466 20.9283 38.0689 19.6886C38.0913 18.4489 39.1079 17.4661 40.3367 17.4885Z" fill="var(--fill-0, #2BA8B0)"/>
</g>
</g>
</svg>
